<svg width="512" height="512" viewBox="0 0 512 512" fill="none" xmlns="http://www.w3.org/2000/svg">
<path d="M256 94.9C176.1 94.9 111.3 159.7 111.3 239.6C111.4 319.5 176.1 384.2 256 384.3C335.9 384.3 400.7 319.5 400.7 239.6C400.7 159.7 335.9 94.9 256 94.9ZM256 367.3C185.5 367.3 128.3 310.1 128.3 239.6C128.4 169.1 185.5 112 256 111.9C326.5 111.9 383.7 169.1 383.7 239.6C383.7 310.1 326.5 367.3 256 367.3Z" fill="url(#paint0_linear_27_1315)"/>
<path d="M329.8 157.1C284.2 116.4 214.3 120.2 173.5 165.8C155.4 186.1 145.3 212.4 145.3 239.6C145.3 271.1 158.7 301.1 182.2 322.1C227.8 362.8 297.7 359 338.5 313.4C379.2 267.8 375.3 197.9 329.8 157.1ZM318.4 309.4C279.9 343.9 220.7 340.6 186.2 302C170.8 284.8 162.4 262.6 162.4 239.6C162.4 212.9 173.7 187.5 193.6 169.8C232.1 135.3 291.3 138.6 325.8 177.2C360.3 215.7 357 274.9 318.4 309.4Z" fill="url(#paint1_linear_27_1315)"/>
<path d="M443.3 1.19999C441.9 1.19999 440.5 1.59999 439.2 2.19999C383.4 32.8 315.9 32.8 260.1 2.19999C257.6 0.799994 254.5 0.799994 251.9 2.19999C196.1 32.8 128.6 32.8 72.8002 2.19999C68.7002 -6.19888e-06 63.5002 1.49999 61.2002 5.69999C60.5002 6.99999 60.2002 8.39999 60.2002 9.79999V373.4C60.2002 388.4 68.2002 402.4 81.1002 410L251.7 510.8C254.4 512.4 257.7 512.4 260.4 510.8L430.9 410C443.8 402.3 451.8 388.4 451.8 373.4V9.79999C451.8 5.09999 448 1.19999 443.3 1.19999ZM434.8 373.4C434.8 382.4 430 390.8 422.3 395.4L256 493.6L89.8002 395.4C82.0002 390.8 77.3002 382.4 77.3002 373.4V23.6C134.3 49.9 200.3 48.4 256.1 19.4C311.8 48.4 377.8 49.9 434.9 23.6V373.4H434.8Z" fill="url(#paint2_linear_27_1315)"/>
<defs>
<linearGradient id="paint0_linear_27_1315" x1="111.285" y1="239.596" x2="400.713" y2="239.596" gradientUnits="userSpaceOnUse">
<stop stop-color="#7F00FF"/>
<stop offset="1" stop-color="#3F00FC"/>
</linearGradient>
<linearGradient id="paint1_linear_27_1315" x1="145.335" y1="239.594" x2="366.664" y2="239.594" gradientUnits="userSpaceOnUse">
<stop stop-color="#7F00FF"/>
<stop offset="1" stop-color="#3F00FC"/>
</linearGradient>
<linearGradient id="paint2_linear_27_1315" x1="60.2102" y1="256.62" x2="451.79" y2="256.62" gradientUnits="userSpaceOnUse">
<stop stop-color="#7F00FF"/>
<stop offset="1" stop-color="#3F00FC"/>
</linearGradient>
</defs>
</svg>
