<svg width="512" height="512" viewBox="0 0 512 512" fill="none" xmlns="http://www.w3.org/2000/svg">
<g clip-path="url(#clip0_27_1322)">
<path d="M477.9 199.7H179.2C179.2 162 148.6 131.4 110.9 131.4C73.2 131.4 42.7 162 42.7 199.7H34.2C15.3 199.7 0 215 0 233.9V489.9C0 508.7 15.3 524 34.1 524H477.8C496.7 524 511.9 508.7 511.9 489.9V233.9C512 215 496.7 199.7 477.9 199.7ZM110.9 148.5C139.2 148.5 162.1 171.4 162.1 199.7C162.1 228 139.2 250.9 110.9 250.9C82.6 250.9 59.7 228 59.7 199.7C59.8 171.5 82.7 148.6 110.9 148.5ZM59.7 250.9H65.9C91.6 273.7 130.2 273.7 155.9 250.9H247.4V293.6H264.5V250.9H426.6V472.8H59.7V250.9ZM494.9 489.9C494.9 499.3 487.3 507 477.8 507H34.1C24.7 507 17 499.4 17 489.9V233.9C17 224.5 24.6 216.8 34.1 216.8H44.9C46.4 222.8 48.8 228.5 51.9 233.9H51.2C46.5 233.9 42.7 237.7 42.7 242.4V481.3C42.7 486 46.5 489.8 51.2 489.8H435.2C439.9 489.8 443.7 486 443.7 481.3V242.4C443.7 237.7 439.9 233.9 435.2 233.9H170C173.1 228.6 175.4 222.8 177 216.8H477.9C487.3 216.8 495 224.4 495 233.9V489.9H494.9Z" fill="url(#paint0_linear_27_1322)"/>
<path d="M358.4 46.1C320.7 46.1 290.2 76.7 290.1 114.4C290.1 152.1 320.7 182.7 358.4 182.7C396.1 182.7 426.7 152.1 426.7 114.4C426.7 76.7 396.1 46.1 358.4 46.1ZM358.4 165.6C330.1 165.6 307.2 142.7 307.2 114.4C307.2 86.1 330.1 63.2 358.4 63.2C386.7 63.2 409.6 86.1 409.6 114.4C409.6 142.7 386.7 165.6 358.4 165.6Z" fill="url(#paint1_linear_27_1322)"/>
<path d="M273.1 12H290.2V71.7H273.1V12Z" fill="url(#paint2_linear_27_1322)"/>
<path d="M401.1 12H418.2V37.6H401.1V12Z" fill="url(#paint3_linear_27_1322)"/>
<path d="M230.4 71.7H247.5V148.5H230.4V71.7Z" fill="url(#paint4_linear_27_1322)"/>
<path d="M167.9 12H185V88.8H167.9V12Z" fill="url(#paint5_linear_27_1322)"/>
<path d="M76.7998 12H93.8998V37.6H76.7998V12Z" fill="url(#paint6_linear_27_1322)"/>
<path d="M273.1 157.1H290.2V174.2H273.1V157.1Z" fill="url(#paint7_linear_27_1322)"/>
<path d="M167.9 110.1H185V127.2H167.9V110.1Z" fill="url(#paint8_linear_27_1322)"/>
<path d="M136.5 268H153.6V285.1H136.5V268Z" fill="url(#paint9_linear_27_1322)"/>
<path d="M136.5 302.1H153.6V353.3H136.5V302.1Z" fill="url(#paint10_linear_27_1322)"/>
<path d="M102.4 46.1H119.5V63.2H102.4V46.1Z" fill="url(#paint11_linear_27_1322)"/>
<path d="M102.4 80.3H119.5V114.4H102.4V80.3Z" fill="url(#paint12_linear_27_1322)"/>
<path d="M230.4 37.6H247.5V54.7H230.4V37.6Z" fill="url(#paint13_linear_27_1322)"/>
<path d="M358.4 268C339.5 268 324.3 283.3 324.3 302.1C324.3 320.9 339.6 336.2 358.4 336.2C377.2 336.2 392.5 320.9 392.5 302.1C392.5 283.3 377.3 268 358.4 268ZM358.4 319.2C349 319.2 341.3 311.6 341.3 302.1C341.3 292.6 348.9 285 358.4 285C367.9 285 375.5 292.6 375.5 302.1C375.5 311.6 367.8 319.2 358.4 319.2Z" fill="url(#paint14_linear_27_1322)"/>
</g>
<defs>
<linearGradient id="paint0_linear_27_1322" x1="0" y1="327.733" x2="512" y2="327.733" gradientUnits="userSpaceOnUse">
<stop stop-color="#7F00FF"/>
<stop offset="1" stop-color="#3F00FC"/>
</linearGradient>
<linearGradient id="paint1_linear_27_1322" x1="290.133" y1="114.4" x2="426.667" y2="114.4" gradientUnits="userSpaceOnUse">
<stop stop-color="#7F00FF"/>
<stop offset="1" stop-color="#3F00FC"/>
</linearGradient>
<linearGradient id="paint2_linear_27_1322" x1="273.067" y1="41.867" x2="290.133" y2="41.867" gradientUnits="userSpaceOnUse">
<stop stop-color="#7F00FF"/>
<stop offset="1" stop-color="#3F00FC"/>
</linearGradient>
<linearGradient id="paint3_linear_27_1322" x1="401.067" y1="24.8" x2="418.133" y2="24.8" gradientUnits="userSpaceOnUse">
<stop stop-color="#7F00FF"/>
<stop offset="1" stop-color="#3F00FC"/>
</linearGradient>
<linearGradient id="paint4_linear_27_1322" x1="230.4" y1="110.133" x2="247.467" y2="110.133" gradientUnits="userSpaceOnUse">
<stop stop-color="#7F00FF"/>
<stop offset="1" stop-color="#3F00FC"/>
</linearGradient>
<linearGradient id="paint5_linear_27_1322" x1="167.9" y1="50.4" x2="184.967" y2="50.4" gradientUnits="userSpaceOnUse">
<stop stop-color="#7F00FF"/>
<stop offset="1" stop-color="#3F00FC"/>
</linearGradient>
<linearGradient id="paint6_linear_27_1322" x1="76.7998" y1="24.8" x2="93.8668" y2="24.8" gradientUnits="userSpaceOnUse">
<stop stop-color="#7F00FF"/>
<stop offset="1" stop-color="#3F00FC"/>
</linearGradient>
<linearGradient id="paint7_linear_27_1322" x1="273.067" y1="165.6" x2="290.133" y2="165.6" gradientUnits="userSpaceOnUse">
<stop stop-color="#7F00FF"/>
<stop offset="1" stop-color="#3F00FC"/>
</linearGradient>
<linearGradient id="paint8_linear_27_1322" x1="167.9" y1="118.667" x2="184.967" y2="118.667" gradientUnits="userSpaceOnUse">
<stop stop-color="#7F00FF"/>
<stop offset="1" stop-color="#3F00FC"/>
</linearGradient>
<linearGradient id="paint9_linear_27_1322" x1="136.533" y1="276.533" x2="153.6" y2="276.533" gradientUnits="userSpaceOnUse">
<stop stop-color="#7F00FF"/>
<stop offset="1" stop-color="#3F00FC"/>
</linearGradient>
<linearGradient id="paint10_linear_27_1322" x1="136.533" y1="327.733" x2="153.6" y2="327.733" gradientUnits="userSpaceOnUse">
<stop stop-color="#7F00FF"/>
<stop offset="1" stop-color="#3F00FC"/>
</linearGradient>
<linearGradient id="paint11_linear_27_1322" x1="102.4" y1="54.667" x2="119.467" y2="54.667" gradientUnits="userSpaceOnUse">
<stop stop-color="#7F00FF"/>
<stop offset="1" stop-color="#3F00FC"/>
</linearGradient>
<linearGradient id="paint12_linear_27_1322" x1="102.4" y1="97.333" x2="119.467" y2="97.333" gradientUnits="userSpaceOnUse">
<stop stop-color="#7F00FF"/>
<stop offset="1" stop-color="#3F00FC"/>
</linearGradient>
<linearGradient id="paint13_linear_27_1322" x1="230.4" y1="46.133" x2="247.467" y2="46.133" gradientUnits="userSpaceOnUse">
<stop stop-color="#7F00FF"/>
<stop offset="1" stop-color="#3F00FC"/>
</linearGradient>
<linearGradient id="paint14_linear_27_1322" x1="324.267" y1="302.133" x2="392.533" y2="302.133" gradientUnits="userSpaceOnUse">
<stop stop-color="#7F00FF"/>
<stop offset="1" stop-color="#3F00FC"/>
</linearGradient>
<clipPath id="clip0_27_1322">
<rect width="512" height="512" fill="white"/>
</clipPath>
</defs>
</svg>
