<svg width="512" height="512" viewBox="0 0 512 512" fill="none" xmlns="http://www.w3.org/2000/svg">
<path d="M329.601 173.7C284.201 133.1 214.401 136.9 173.701 182.4C155.601 202.6 145.601 228.8 145.601 256C145.601 287.4 159.001 317.3 182.401 338.3C227.801 378.9 297.601 375.1 338.301 329.6C378.901 284.1 375.001 214.3 329.601 173.7ZM318.301 325.6C279.901 360 220.801 356.7 186.401 318.2C171.078 301.066 162.605 278.886 162.601 255.9C162.601 229.3 173.901 204 193.701 186.3C232.101 151.9 291.201 155.2 325.601 193.7C360.001 232.1 356.701 291.2 318.301 325.6Z" fill="url(#paint0_linear_27_1350)"/>
<path d="M493.7 279.9C506.9 275.2 513.9 260.7 509.3 247.5C504.6 234.3 490.1 227.3 476.9 231.9C469.6 234.5 463.9 240.2 461.3 247.5H399.9C396.9 197.4 368.2 152.4 323.9 128.7V77.7H418.9C421.5 84.9 427.1 90.6 434.3 93.1V162.6C434.3 167.3 438.1 171.1 442.8 171.1H510.7V154.1H451.3V93.1C464.5 88.4 471.5 73.9 466.9 60.7C462.3 47.5 447.7 40.5 434.5 45.1C427.2 47.7 421.5 53.4 418.9 60.7H315.4C310.7 60.7 306.9 64.5 306.9 69.2V121.1C290.6 114.9 273.4 111.7 256 111.6C250.3 111.6 244.7 112 239 112.7V101.6C252.2 97 259.2 82.6 254.6 69.4C252.1 62.1 246.3 56.4 239 53.8V18.2H510.7V1.2H230.5C225.8 1.2 222 5 222 9.7V53.7C214.8 56.3 209.1 61.9 206.6 69.1H128.6V50.6C141.8 45.9 148.8 31.4 144.2 18.2C139.5 5 125 -2 111.8 2.7C104.5 5.3 98.8002 11 96.2002 18.3H1.2002V35.3H96.2002C98.8002 42.5 104.4 48.2 111.6 50.7V77.7C111.6 82.4 115.4 86.2 120.1 86.2H206.6C209.2 93.4 214.8 99.1 222 101.6V115.9C160.5 130.9 115.9 184.3 112.1 247.5H60.7002V212C73.9002 207.4 80.9002 193 76.3002 179.8C73.8002 172.5 68.0002 166.8 60.7002 164.2V111.7C60.7002 107 56.9002 103.2 52.2002 103.2H1.3002V120.2H43.8002V164.2C30.6002 168.8 23.6002 183.2 28.2002 196.4C30.7002 203.7 36.5002 209.4 43.8002 212V256C43.8002 260.7 47.6002 264.5 52.3002 264.5H112.2C113.4 285.3 119 305.6 128.8 323.9H86.2002C81.5002 323.9 77.7002 327.7 77.7002 332.4V374.9H1.3002V391.9H77.7002V408.9C77.7002 413.6 81.5002 417.4 86.2002 417.4H145.6V435.9C138.4 438.5 132.7 444.1 130.2 451.3H1.3002V468.3H130.2C134.9 481.5 149.4 488.5 162.6 483.9C175.8 479.2 182.8 464.7 178.2 451.5C175.6 444.2 169.9 438.5 162.6 435.9V408.9C162.6 404.2 158.8 400.4 154.1 400.4H94.7002V341H139.6C165 375.8 204.6 397.5 247.6 400V459.9C247.6 464.6 251.4 468.4 256.1 468.4H324V510.9H341V460C341 455.3 337.2 451.5 332.5 451.5H264.6V400.1C299.9 398.1 333.3 383.1 358.2 358.1H408.9V461.5C395.6 466.2 388.7 480.7 393.4 494C398.1 507.3 412.6 514.2 425.9 509.5C439.2 504.8 446.1 490.3 441.4 477C438.8 469.7 433.1 464 425.9 461.5V349.3C425.9 344.6 422.1 340.8 417.4 340.8H372.5C388.8 318.5 398.4 292 399.9 264.4H461.3C463.9 271.6 469.5 277.3 476.7 279.8V391.7C476.7 396.4 480.5 400.2 485.2 400.2H510.7V383.2H493.7V279.9ZM442.8 60.7C447.5 60.7 451.3 64.5 451.3 69.2C451.3 73.9 447.5 77.7 442.8 77.7C438.1 77.7 434.3 73.9 434.3 69.2C434.3 64.5 438.1 60.7 442.8 60.7ZM120.1 35.2C115.4 35.2 111.6 31.4 111.6 26.7C111.6 22 115.4 18.2 120.1 18.2C124.8 18.2 128.6 22 128.6 26.7C128.6 31.4 124.8 35.2 120.1 35.2ZM52.2002 196.5C47.5002 196.5 43.7002 192.7 43.7002 188C43.7002 183.3 47.5002 179.5 52.2002 179.5C56.9002 179.5 60.7002 183.3 60.7002 188C60.7002 192.7 56.9002 196.5 52.2002 196.5ZM154.1 451.2C158.8 451.2 162.6 455 162.6 459.7C162.6 464.4 158.8 468.2 154.1 468.2C149.4 468.2 145.6 464.4 145.6 459.7C145.6 455 149.4 451.2 154.1 451.2ZM417.3 476.7C422 476.7 425.8 480.5 425.8 485.2C425.8 489.9 422 493.7 417.3 493.7C412.6 493.7 408.8 489.9 408.8 485.2C408.8 480.5 412.6 476.7 417.3 476.7ZM230.5 69.2C235.2 69.2 239 73 239 77.7C239 82.4 235.2 86.2 230.5 86.2C225.8 86.2 222 82.4 222 77.7C222 73 225.8 69.2 230.5 69.2ZM256 383.3C185.7 383.3 128.6 326.3 128.6 255.9C128.7 185.6 185.7 128.6 256 128.5C326.3 128.5 383.4 185.5 383.4 255.9C383.4 326.3 326.3 383.3 256 383.3ZM485.2 264.4C480.5 264.4 476.7 260.6 476.7 255.9C476.7 251.2 480.5 247.4 485.2 247.4C489.9 247.4 493.7 251.2 493.7 255.9C493.7 260.6 489.9 264.4 485.2 264.4Z" fill="url(#paint1_linear_27_1350)"/>
<path d="M1.2998 340.9H52.1998V357.9H1.2998V340.9Z" fill="url(#paint2_linear_27_1350)"/>
<path d="M281.5 417.3H298.5V434.3H281.5V417.3Z" fill="url(#paint3_linear_27_1350)"/>
<path d="M400.3 111.6H417.3V137.1H400.3V111.6Z" fill="url(#paint4_linear_27_1350)"/>
<defs>
<linearGradient id="paint0_linear_27_1350" x1="145.62" y1="255.949" x2="366.37" y2="255.949" gradientUnits="userSpaceOnUse">
<stop stop-color="#7F00FF"/>
<stop offset="1" stop-color="#3F00FC"/>
</linearGradient>
<linearGradient id="paint1_linear_27_1350" x1="1.2832" y1="256" x2="510.717" y2="256" gradientUnits="userSpaceOnUse">
<stop stop-color="#7F00FF"/>
<stop offset="1" stop-color="#3F00FC"/>
</linearGradient>
<linearGradient id="paint2_linear_27_1350" x1="1.2828" y1="349.344" x2="52.2248" y2="349.344" gradientUnits="userSpaceOnUse">
<stop stop-color="#7F00FF"/>
<stop offset="1" stop-color="#3F00FC"/>
</linearGradient>
<linearGradient id="paint3_linear_27_1350" x1="281.464" y1="425.758" x2="298.445" y2="425.758" gradientUnits="userSpaceOnUse">
<stop stop-color="#7F00FF"/>
<stop offset="1" stop-color="#3F00FC"/>
</linearGradient>
<linearGradient id="paint4_linear_27_1350" x1="400.329" y1="124.35" x2="417.31" y2="124.35" gradientUnits="userSpaceOnUse">
<stop stop-color="#7F00FF"/>
<stop offset="1" stop-color="#3F00FC"/>
</linearGradient>
</defs>
</svg>
