<svg width="2083" height="2083" viewBox="0 0 2083 2083" fill="none" xmlns="http://www.w3.org/2000/svg">
<path opacity="0.17" d="M80.8994 1636.9L547.899 1910.7L792.399 1765.6L336.899 1501.1M1238.9 1337.6L1084.2 1410.7L1572.9 1705.9L1962.9 1443.8L1504.9 1257.6L1238.9 1337.6Z" fill="#1D1B30"/>
<g opacity="0.1">
<path d="M1787.8 757.1C1833.2 783.3 1833.4 825.8 1788.3 852C1459.2 1043.2 1130.2 1234.5 801.099 1425.7C755.999 1451.9 682.599 1451.9 637.199 1425.7C508.799 1351.6 380.399 1277.4 251.899 1203.3C206.499 1177.1 206.199 1134.6 251.299 1108.4C580.399 917.2 909.399 725.9 1238.5 534.7C1283.6 508.5 1357 508.5 1402.4 534.7C1531 608.8 1659.4 682.9 1787.8 757.1Z" fill="black"/>
<path d="M1833.1 815.9C1832.4 810.5 1831.4 806.7 1830.9 805C1830.1 802.3 1829.2 799.2 1826.7 793.7C1825.3 790.6 1824 788.4 1821.7 784.8C1820.3 782.5 1818.1 779.6 1816.3 777.6C1814 775 1810.7 771.6 1808.1 769.2C1805.1 766.4 1800.6 763.2 1797.2 760.8C1795.4 759.5 1792.9 758.1 1791 757C1790 756.4 1788.8 756.4 1787.6 757.1C1833 783.3 1833.2 825.8 1788.1 852L800.899 1425.7C755.799 1451.9 682.399 1451.9 636.999 1425.7L251.999 1203.3C206.599 1177.1 206.299 1134.6 251.399 1108.4C250.199 1107.7 248.999 1107.7 247.899 1108.3C244.399 1110.5 239.899 1113.5 236.499 1115.9C234.899 1117.1 232.799 1118.8 231.299 1120.2C228.999 1122.3 226.099 1125.1 223.999 1127.5C220.299 1131.8 218.099 1135.1 216.899 1137C211.999 1145 209.899 1151.3 208.399 1156.4C207.499 1159.5 206.799 1163.1 206.299 1167.2C205.799 1170.7 205.799 1173.3 205.699 1177V1182.4C205.699 1186 206.099 1189.5 206.999 1193.1C206.099 1189.6 205.699 1186 205.699 1182.4C205.699 1192.3 207.299 1199.4 208.699 1204.5C211.299 1213.7 215.599 1220.7 216.999 1223C218.599 1225.6 221.199 1229.1 222.799 1230.9C225.299 1233.7 228.799 1237.3 231.599 1239.9C234.599 1242.6 238.999 1245.7 242.299 1248.1C243.999 1249.3 246.499 1250.7 248.399 1251.8L633.699 1474C642.299 1479 649.199 1481.6 649.299 1481.7C654.099 1483.5 660.599 1485.8 665.499 1487.3C668.099 1488.1 671.499 1488.9 674.199 1489.6C687.599 1492.8 703.999 1494.7 719.199 1494.7C734.699 1494.7 750.699 1492.9 764.299 1489.6C766.999 1489 770.499 1488.1 773.099 1487.3C777.999 1485.7 784.399 1483.5 789.199 1481.6C791.699 1480.6 794.999 1479.1 797.399 1477.9C799.599 1476.8 802.399 1475.2 804.499 1474.1C805.699 1473.4 806.699 1471.9 807.599 1469.8C806.799 1471.9 805.699 1473.4 804.499 1474.1L1199.4 1244.6L1791.7 900.4C1795.1 898.3 1799.5 895.5 1802.6 893.1C1805.7 890.7 1809.5 887.3 1812.4 884.6C1814.3 882.8 1816.7 880 1818.3 877.9C1820.1 875.6 1822.2 872.4 1823.7 869.9C1826.4 865.5 1829.5 858.3 1830.8 853.2C1831.6 850.1 1832.4 847.2 1833 842.5C1833.6 838.2 1833.7 835.3 1833.8 831.7V826.3C1833.7 823.1 1833.7 820 1833.1 815.9ZM1555.1 699.3C1559.7 702 1559.8 706.3 1555.2 709C1550.6 711.7 1543.1 711.7 1538.5 709L1454.6 660.6C1450 657.9 1449.9 653.6 1454.5 650.9C1459.1 648.2 1466.6 648.2 1471.3 650.9L1555.1 699.3ZM1422.7 622.9C1427.3 625.6 1427.4 629.9 1422.7 632.6C1418.1 635.3 1410.6 635.3 1406 632.6C1401.4 629.9 1401.3 625.6 1405.9 622.9C1410.6 620.2 1418.1 620.2 1422.7 622.9Z" fill="black"/>
<path d="M520.299 1233.5C543.499 1246.9 543.599 1268.6 520.599 1281.9C497.599 1295.3 460.099 1295.3 436.999 1281.9C413.799 1268.5 413.699 1246.8 436.699 1233.5C459.699 1220.1 497.099 1220.1 520.299 1233.5Z" fill="black"/>
<path d="M442.499 1239.4C465.499 1226 502.999 1226 526.099 1239.4C528.399 1240.7 530.499 1242.2 532.299 1243.7C529.399 1240 525.399 1236.5 520.099 1233.5C496.899 1220.1 459.499 1220.1 436.499 1233.5C415.799 1245.5 413.899 1264.3 430.499 1277.7C420.799 1265 424.699 1249.7 442.499 1239.4Z" fill="black"/>
</g>
<path d="M1777.8 737.1C1823.2 763.3 1823.4 805.8 1778.3 832C1449.2 1023.2 1120.2 1214.5 791.099 1405.7C745.999 1431.9 672.599 1431.9 627.199 1405.7C498.799 1331.6 370.399 1257.4 241.899 1183.3C196.499 1157.1 196.199 1114.6 241.299 1088.4C570.399 897.2 899.399 705.9 1228.5 514.7C1273.6 488.5 1347 488.5 1392.4 514.7C1521 588.8 1649.4 662.9 1777.8 737.1Z" fill="url(#paint0_linear_18_1119)"/>
<path d="M1823.1 795.9C1822.4 790.5 1821.4 786.7 1820.9 785C1820.1 782.3 1819.2 779.2 1816.7 773.7C1815.3 770.6 1814 768.4 1811.7 764.8C1810.3 762.5 1808.1 759.6 1806.3 757.6C1804 755 1800.7 751.6 1798.1 749.2C1795.1 746.4 1790.6 743.2 1787.2 740.8C1785.4 739.5 1782.9 738.1 1781 737C1780 736.4 1778.8 736.4 1777.6 737.1C1823 763.3 1823.2 805.8 1778.1 832L790.899 1405.7C745.799 1431.9 672.399 1431.9 626.999 1405.7L241.999 1183.3C196.599 1157.1 196.299 1114.6 241.399 1088.4C240.199 1087.7 238.999 1087.7 237.899 1088.3C234.399 1090.5 229.899 1093.5 226.499 1095.9C224.899 1097.1 222.799 1098.8 221.299 1100.2C218.999 1102.3 216.099 1105.1 213.999 1107.5C210.299 1111.8 208.099 1115.1 206.899 1117C201.999 1125 199.899 1131.3 198.399 1136.4C197.499 1139.5 196.799 1143.1 196.299 1147.2C195.799 1150.7 195.799 1153.3 195.699 1157V1162.4C195.699 1166 196.099 1169.5 196.999 1173.1C196.099 1169.6 195.699 1166 195.699 1162.4C195.699 1172.3 197.299 1179.4 198.699 1184.5C201.299 1193.7 205.599 1200.7 206.999 1203C208.599 1205.6 211.199 1209.1 212.799 1210.9C215.299 1213.7 218.799 1217.3 221.599 1219.9C224.599 1222.6 228.999 1225.7 232.299 1228.1C233.999 1229.3 236.499 1230.7 238.399 1231.8L623.699 1454C632.299 1459 639.199 1461.6 639.299 1461.7C644.099 1463.5 650.599 1465.8 655.499 1467.3C658.099 1468.1 661.499 1468.9 664.199 1469.6C677.599 1472.8 693.999 1474.7 709.199 1474.7C724.699 1474.7 740.699 1472.9 754.299 1469.6C756.999 1469 760.499 1468.1 763.099 1467.3C767.999 1465.7 774.399 1463.5 779.199 1461.6C781.699 1460.6 784.999 1459.1 787.399 1457.9C789.599 1456.8 792.399 1455.2 794.499 1454.1C795.699 1453.4 796.699 1451.9 797.599 1449.8C796.799 1451.9 795.699 1453.4 794.499 1454.1L1189.4 1224.6L1781.7 880.4C1785.1 878.3 1789.5 875.5 1792.6 873.1C1795.7 870.7 1799.5 867.3 1802.4 864.6C1804.3 862.8 1806.7 860 1808.3 857.9C1810.1 855.6 1812.2 852.4 1813.7 849.9C1816.4 845.5 1819.5 838.3 1820.8 833.2C1821.6 830.1 1822.4 827.2 1823 822.5C1823.6 818.2 1823.7 815.3 1823.8 811.7V806.3C1823.7 803.1 1823.7 800 1823.1 795.9Z" fill="url(#paint1_linear_18_1119)"/>
<path d="M1545.1 679.3C1549.7 682 1549.8 686.3 1545.2 689C1540.6 691.7 1533.1 691.7 1528.5 689L1444.6 640.6C1440 637.9 1439.9 633.6 1444.5 630.9C1449.1 628.2 1456.6 628.2 1461.3 630.9L1545.1 679.3ZM1412.7 602.9C1417.3 605.6 1417.4 609.9 1412.7 612.6C1408.1 615.3 1400.6 615.3 1396 612.6C1391.4 609.9 1391.3 605.6 1395.9 602.9C1400.6 600.2 1408.1 600.2 1412.7 602.9Z" fill="#37474F"/>
<path d="M510.3 1213.5C533.5 1226.9 533.6 1248.6 510.6 1261.9C487.6 1275.3 450.1 1275.3 427 1261.9C403.8 1248.5 403.7 1226.8 426.7 1213.5C449.7 1200.1 487.1 1200.1 510.3 1213.5Z" fill="url(#paint2_linear_18_1119)"/>
<path d="M432.5 1219.4C455.5 1206 493 1206 516.1 1219.4C518.4 1220.7 520.5 1222.2 522.3 1223.7C519.4 1220 515.4 1216.5 510.1 1213.5C486.9 1200.1 449.5 1200.1 426.5 1213.5C405.8 1225.5 403.9 1244.3 420.5 1257.7C410.8 1245 414.7 1229.7 432.5 1219.4Z" fill="#263238"/>
<path d="M326.499 1080.1L803.099 1355.1C806.999 1357.4 811.799 1357.4 815.699 1355.1L1669.6 867.3C1678.1 862.4 1678.1 850.1 1669.6 845.3L1186.5 569.8C1182.6 567.6 1177.8 567.6 1173.9 569.8L326.599 1058.1C318.099 1063 318.099 1075.2 326.499 1080.1Z" fill="url(#paint3_linear_18_1119)"/>
<path opacity="0.2" d="M1184.7 760.3L1345.6 861.1L1185.7 961.8L1024.8 861.1L1184.7 760.3Z" fill="#1D1B30"/>
<path d="M1184 655.8L1361.8 758.4L1185.2 861.1L1007.3 758.5L1184 655.8Z" fill="url(#paint4_linear_18_1119)"/>
<path d="M1007.3 758.5L1007.2 793.1L1185.2 895.7V861.1L1007.3 758.5Z" fill="url(#paint5_linear_18_1119)"/>
<path d="M1185.2 895.8V861.1L1361.9 758.5L1361.8 793.1L1185.2 895.8Z" fill="url(#paint6_linear_18_1119)"/>
<path d="M1184 591.3L1361.8 693.9L1185.2 796.5L1007.3 693.9L1184 591.3Z" fill="url(#paint7_linear_18_1119)"/>
<path d="M1007.3 694L1007.2 728.5L1185.2 831.2V796.6L1007.3 694Z" fill="url(#paint8_linear_18_1119)"/>
<path d="M1185.2 831.2V796.6L1361.9 693.9L1361.8 728.6L1185.2 831.2Z" fill="url(#paint9_linear_18_1119)"/>
<path d="M1184 526.7L1361.8 629.3L1185.2 732L1007.3 629.4L1184 526.7Z" fill="url(#paint10_linear_18_1119)"/>
<path d="M1007.3 629.4L1007.2 664L1185.2 766.6V732L1007.3 629.4Z" fill="url(#paint11_linear_18_1119)"/>
<path d="M1185.2 766.6V732L1361.9 629.4L1361.8 664L1185.2 766.6Z" fill="url(#paint12_linear_18_1119)"/>
<path d="M1184 462.1L1361.8 564.8L1185.2 667.4L1007.3 564.8L1184 462.1Z" fill="url(#paint13_linear_18_1119)"/>
<path d="M1007.3 564.8L1007.2 599.4L1185.2 702.1V667.5L1007.3 564.8Z" fill="url(#paint14_linear_18_1119)"/>
<path d="M1185.2 702.1V667.5L1361.9 564.8L1361.8 599.5L1185.2 702.1Z" fill="url(#paint15_linear_18_1119)"/>
<path d="M1184 397.6L1361.8 500.2L1185.2 602.8L1007.3 500.3L1184 397.6Z" fill="url(#paint16_linear_18_1119)"/>
<path d="M1007.3 500.3L1007.2 534.9L1185.2 637.5V602.9L1007.3 500.3Z" fill="url(#paint17_linear_18_1119)"/>
<path d="M1185.2 637.5V602.9L1361.9 500.3L1361.8 534.9L1185.2 637.5Z" fill="url(#paint18_linear_18_1119)"/>
<path d="M1184.8 436.2L1291.2 497.5L1185.6 558.9L1079.2 497.6L1184.8 436.2Z" fill="url(#paint19_linear_18_1119)"/>
<mask id="mask0_18_1119" style="mask-type:luminance" maskUnits="userSpaceOnUse" x="1079" y="436" width="213" height="123">
<path d="M1184.8 436.2L1291.2 497.5L1185.6 558.9L1079.2 497.6L1184.8 436.2Z" fill="white"/>
</mask>
<g mask="url(#mask0_18_1119)">
<path d="M1184.8 455.5L1291.2 516.8L1185.6 578.2L1079.2 516.9L1184.8 455.5Z" fill="url(#paint20_linear_18_1119)"/>
</g>
<mask id="mask1_18_1119" style="mask-type:luminance" maskUnits="userSpaceOnUse" x="1079" y="436" width="213" height="123">
<path d="M1184.8 436.2L1291.2 497.5L1185.6 558.9L1079.2 497.6L1184.8 436.2Z" fill="white"/>
</mask>
<g mask="url(#mask1_18_1119)">
<path d="M1184.8 474.4L1291.2 535.8L1185.6 597.1L1079.2 535.8L1184.8 474.4Z" fill="url(#paint21_linear_18_1119)"/>
</g>
<mask id="mask2_18_1119" style="mask-type:luminance" maskUnits="userSpaceOnUse" x="1079" y="436" width="213" height="123">
<path d="M1184.8 436.2L1291.2 497.5L1185.6 558.9L1079.2 497.6L1184.8 436.2Z" fill="white"/>
</mask>
<g mask="url(#mask2_18_1119)">
<path d="M1184.8 493.3L1291.2 554.7L1185.6 616.1L1079.2 554.7L1184.8 493.3Z" fill="url(#paint22_linear_18_1119)"/>
</g>
<mask id="mask3_18_1119" style="mask-type:luminance" maskUnits="userSpaceOnUse" x="1079" y="436" width="213" height="123">
<path d="M1184.8 436.2L1291.2 497.5L1185.6 558.9L1079.2 497.6L1184.8 436.2Z" fill="white"/>
</mask>
<g mask="url(#mask3_18_1119)">
<path d="M1184.8 512.3L1291.2 573.6L1185.6 635L1079.2 573.6L1184.8 512.3Z" fill="url(#paint23_linear_18_1119)"/>
</g>
<mask id="mask4_18_1119" style="mask-type:luminance" maskUnits="userSpaceOnUse" x="1079" y="436" width="213" height="123">
<path d="M1184.8 436.2L1291.2 497.5L1185.6 558.9L1079.2 497.6L1184.8 436.2Z" fill="white"/>
</mask>
<g mask="url(#mask4_18_1119)">
<path d="M1184.8 531.2L1291.2 592.5L1185.6 653.9L1079.2 592.6L1184.8 531.2Z" fill="url(#paint24_linear_18_1119)"/>
</g>
<mask id="mask5_18_1119" style="mask-type:luminance" maskUnits="userSpaceOnUse" x="1079" y="436" width="213" height="123">
<path d="M1184.8 436.2L1291.2 497.5L1185.6 558.9L1079.2 497.6L1184.8 436.2Z" fill="white"/>
</mask>
<g mask="url(#mask5_18_1119)">
<path d="M1184.8 550.1L1291.2 611.5L1185.6 672.8L1079.2 611.5L1184.8 550.1Z" fill="url(#paint25_linear_18_1119)"/>
</g>
<path d="M1184.2 172.3L1078.6 233.7V495.5L1184.9 556.9L1290.6 495.5V233.6L1184.2 172.3Z" fill="url(#paint26_linear_18_1119)"/>
<path opacity="0.6" d="M1154.2 491.5C1157.02 491.5 1159.3 489.217 1159.3 486.4C1159.3 483.583 1157.02 481.3 1154.2 481.3C1151.38 481.3 1149.1 483.583 1149.1 486.4C1149.1 489.217 1151.38 491.5 1154.2 491.5Z" fill="url(#paint27_linear_18_1119)"/>
<path opacity="0.4" d="M1114.1 391.3C1115.26 391.3 1116.2 390.36 1116.2 389.2C1116.2 388.04 1115.26 387.1 1114.1 387.1C1112.94 387.1 1112 388.04 1112 389.2C1112 390.36 1112.94 391.3 1114.1 391.3Z" fill="url(#paint28_linear_18_1119)"/>
<path opacity="0.5" d="M1250 412.7C1251.49 412.7 1252.7 411.491 1252.7 410C1252.7 408.509 1251.49 407.3 1250 407.3C1248.51 407.3 1247.3 408.509 1247.3 410C1247.3 411.491 1248.51 412.7 1250 412.7Z" fill="url(#paint29_linear_18_1119)"/>
<path opacity="0.55" d="M1192.9 434.2C1194.39 434.2 1195.6 432.991 1195.6 431.5C1195.6 430.009 1194.39 428.8 1192.9 428.8C1191.41 428.8 1190.2 430.009 1190.2 431.5C1190.2 432.991 1191.41 434.2 1192.9 434.2Z" fill="url(#paint30_linear_18_1119)"/>
<path opacity="0.4" d="M1439.9 297.6C1441.34 297.6 1442.5 296.436 1442.5 295C1442.5 293.564 1441.34 292.4 1439.9 292.4C1438.46 292.4 1437.3 293.564 1437.3 295C1437.3 296.436 1438.46 297.6 1439.9 297.6Z" fill="url(#paint31_linear_18_1119)"/>
<path opacity="0.6" d="M1506.9 478.5C1509.72 478.5 1512 476.217 1512 473.4C1512 470.583 1509.72 468.3 1506.9 468.3C1504.08 468.3 1501.8 470.583 1501.8 473.4C1501.8 476.217 1504.08 478.5 1506.9 478.5Z" fill="url(#paint32_linear_18_1119)"/>
<path opacity="0.5" d="M1609.4 405C1610.89 405 1612.1 403.791 1612.1 402.3C1612.1 400.809 1610.89 399.6 1609.4 399.6C1607.91 399.6 1606.7 400.809 1606.7 402.3C1606.7 403.791 1607.91 405 1609.4 405Z" fill="url(#paint33_linear_18_1119)"/>
<path opacity="0.4" d="M615.7 368.3C617.136 368.3 618.3 367.136 618.3 365.7C618.3 364.264 617.136 363.1 615.7 363.1C614.264 363.1 613.1 364.264 613.1 365.7C613.1 367.136 614.264 368.3 615.7 368.3Z" fill="url(#paint34_linear_18_1119)"/>
<path opacity="0.6" d="M807.2 375.8C810.016 375.8 812.3 373.517 812.3 370.7C812.3 367.883 810.016 365.6 807.2 365.6C804.383 365.6 802.1 367.883 802.1 370.7C802.1 373.517 804.383 375.8 807.2 375.8Z" fill="url(#paint35_linear_18_1119)"/>
<path opacity="0.55" d="M852.599 323.8C854.091 323.8 855.299 322.591 855.299 321.1C855.299 319.609 854.091 318.4 852.599 318.4C851.108 318.4 849.899 319.609 849.899 321.1C849.899 322.591 851.108 323.8 852.599 323.8Z" fill="url(#paint36_linear_18_1119)"/>
<path opacity="0.2" d="M935.199 910.6L1084.2 1003.3L936.199 1096L787.199 1003.4L935.199 910.6Z" fill="#1D1B30"/>
<path d="M935.1 799.6L1112.9 902.2L936.3 1004.8L758.5 902.2L935.1 799.6Z" fill="url(#paint37_linear_18_1119)"/>
<path d="M758.5 902.3L758.3 936.9L936.3 1039.5V1004.9L758.5 902.3Z" fill="url(#paint38_linear_18_1119)"/>
<path d="M936.3 1039.5V1004.9L1113 902.3L1112.9 936.9L936.3 1039.5Z" fill="url(#paint39_linear_18_1119)"/>
<path d="M935.1 735L1112.9 837.6L936.3 940.3L758.5 837.7L935.1 735Z" fill="url(#paint40_linear_18_1119)"/>
<path d="M758.5 837.7L758.3 872.3L936.3 974.9V940.3L758.5 837.7Z" fill="url(#paint41_linear_18_1119)"/>
<path d="M936.3 974.9V940.3L1113 837.7L1112.9 872.3L936.3 974.9Z" fill="url(#paint42_linear_18_1119)"/>
<path d="M935.1 670.5L1112.9 773.1L936.3 875.7L758.5 773.1L935.1 670.5Z" fill="url(#paint43_linear_18_1119)"/>
<path d="M758.5 773.2L758.3 807.7L936.3 910.4V875.8L758.5 773.2Z" fill="url(#paint44_linear_18_1119)"/>
<path d="M936.3 910.4V875.8L1113 773.1L1112.9 807.8L936.3 910.4Z" fill="url(#paint45_linear_18_1119)"/>
<path d="M936 709L1042.3 770.4L936.7 831.8L830.3 770.4L936 709Z" fill="url(#paint46_linear_18_1119)"/>
<mask id="mask6_18_1119" style="mask-type:luminance" maskUnits="userSpaceOnUse" x="830" y="709" width="213" height="123">
<path d="M936 709L1042.3 770.4L936.7 831.8L830.3 770.4L936 709Z" fill="white"/>
</mask>
<g mask="url(#mask6_18_1119)">
<path d="M936 728.3L1042.3 789.7L936.7 851.1L830.3 789.7L936 728.3Z" fill="url(#paint47_linear_18_1119)"/>
</g>
<mask id="mask7_18_1119" style="mask-type:luminance" maskUnits="userSpaceOnUse" x="830" y="709" width="213" height="123">
<path d="M936 709L1042.3 770.4L936.7 831.8L830.3 770.4L936 709Z" fill="white"/>
</mask>
<g mask="url(#mask7_18_1119)">
<path d="M936 747.3L1042.3 808.6L936.7 870L830.3 808.7L936 747.3Z" fill="url(#paint48_linear_18_1119)"/>
</g>
<mask id="mask8_18_1119" style="mask-type:luminance" maskUnits="userSpaceOnUse" x="830" y="709" width="213" height="123">
<path d="M936 709L1042.3 770.4L936.7 831.8L830.3 770.4L936 709Z" fill="white"/>
</mask>
<g mask="url(#mask8_18_1119)">
<path d="M936 766.2L1042.3 827.6L936.7 888.9L830.3 827.6L936 766.2Z" fill="url(#paint49_linear_18_1119)"/>
</g>
<mask id="mask9_18_1119" style="mask-type:luminance" maskUnits="userSpaceOnUse" x="830" y="709" width="213" height="123">
<path d="M936 709L1042.3 770.4L936.7 831.8L830.3 770.4L936 709Z" fill="white"/>
</mask>
<g mask="url(#mask9_18_1119)">
<path d="M936 785.1L1042.3 846.5L936.7 907.9L830.3 846.5L936 785.1Z" fill="url(#paint50_linear_18_1119)"/>
</g>
<mask id="mask10_18_1119" style="mask-type:luminance" maskUnits="userSpaceOnUse" x="830" y="709" width="213" height="123">
<path d="M936 709L1042.3 770.4L936.7 831.8L830.3 770.4L936 709Z" fill="white"/>
</mask>
<g mask="url(#mask10_18_1119)">
<path d="M936 804.1L1042.3 865.4L936.7 926.8L830.3 865.4L936 804.1Z" fill="url(#paint51_linear_18_1119)"/>
</g>
<mask id="mask11_18_1119" style="mask-type:luminance" maskUnits="userSpaceOnUse" x="830" y="709" width="213" height="123">
<path d="M936 709L1042.3 770.4L936.7 831.8L830.3 770.4L936 709Z" fill="white"/>
</mask>
<g mask="url(#mask11_18_1119)">
<path d="M936 823L1042.3 884.3L936.7 945.7L830.3 884.4L936 823Z" fill="url(#paint52_linear_18_1119)"/>
</g>
<path d="M935.299 445.2L829.699 506.5V768.4L936.099 829.7L1041.7 768.4V506.5L935.299 445.2Z" fill="url(#paint53_linear_18_1119)"/>
<path d="M429.899 875.7V1061.7" stroke="url(#paint54_linear_18_1119)" stroke-width="8" stroke-miterlimit="10" stroke-linecap="round"/>
<path d="M1196.9 876.7V1027.8" stroke="url(#paint55_linear_18_1119)" stroke-width="8" stroke-miterlimit="10" stroke-linecap="round"/>
<path d="M1365.8 659.9V893.3" stroke="url(#paint56_linear_18_1119)" stroke-width="8" stroke-miterlimit="10" stroke-linecap="round"/>
<path d="M928.3 959.2V1192.6" stroke="url(#paint57_linear_18_1119)" stroke-width="8" stroke-miterlimit="10" stroke-linecap="round"/>
<path d="M644.6 732V974.9" stroke="url(#paint58_linear_18_1119)" stroke-width="8" stroke-miterlimit="10" stroke-linecap="round"/>
<path d="M852.899 1019.7V1143.4" stroke="url(#paint59_linear_18_1119)" stroke-width="8" stroke-miterlimit="10" stroke-linecap="round"/>
<path d="M1395.8 670.1V793.8" stroke="url(#paint60_linear_18_1119)" stroke-width="8" stroke-miterlimit="10" stroke-linecap="round"/>
<path d="M703.899 633.5V882.2" stroke="url(#paint61_linear_18_1119)" stroke-width="8" stroke-miterlimit="10" stroke-linecap="round"/>
<path d="M619.899 957.8V1081.6" stroke="url(#paint62_linear_18_1119)" stroke-width="8" stroke-miterlimit="10" stroke-linecap="round"/>
<path d="M1081.6 696.6V820.3" stroke="url(#paint63_linear_18_1119)" stroke-width="8" stroke-miterlimit="10" stroke-linecap="round"/>
<path d="M906.399 684.9V766.6" stroke="url(#paint64_linear_18_1119)" stroke-width="8" stroke-miterlimit="10" stroke-linecap="round"/>
<path d="M956.399 565.5V617.1" stroke="url(#paint65_linear_18_1119)" stroke-width="8" stroke-miterlimit="10" stroke-linecap="round"/>
<path d="M703.899 565.5V602.8" stroke="url(#paint66_linear_18_1119)" stroke-width="8" stroke-miterlimit="10" stroke-linecap="round"/>
<path d="M1366.5 565.5V617.1" stroke="url(#paint67_linear_18_1119)" stroke-width="8" stroke-miterlimit="10" stroke-linecap="round"/>
<g opacity="0.17">
<mask id="mask12_18_1119" style="mask-type:luminance" maskUnits="userSpaceOnUse" x="895" y="1501" width="256" height="149">
<path d="M895.3 1575.2L1022.3 1501.4L1150.1 1575.2L1023.1 1649L895.3 1575.2Z" fill="white"/>
</mask>
<g mask="url(#mask12_18_1119)">
<path d="M1086.2 1538.3C1050.9 1517.9 993.9 1517.9 958.8 1538.3C923.7 1558.7 923.9 1591.7 959.2 1612.1C994.5 1632.5 1051.5 1632.5 1086.6 1612.1C1121.6 1591.7 1121.5 1558.7 1086.2 1538.3Z" fill="#1D1B30"/>
</g>
</g>
<path d="M906.399 1520.1C906.399 1520.1 906.399 1582.8 1013.8 1588.2C1121.2 1593.7 1138.7 1530.2 1138.7 1530.2C1138.7 1530.2 1150.3 1467.8 1043.2 1456.1C1043.2 1456.1 981.299 1447.7 934.899 1477.8C934.799 1477.8 909.999 1490 906.399 1520.1Z" fill="url(#paint68_linear_18_1119)"/>
<path d="M1116.7 1514.5C1116.7 1514.5 1115.4 1477.1 1022.8 1474.9C1022.8 1474.9 936 1474.3 928.9 1514.5C928.9 1514.5 915.7 1470.6 1022.8 1466.3C1022.7 1466.3 1124.7 1468.3 1116.7 1514.5Z" fill="url(#paint69_linear_18_1119)"/>
<path d="M906.2 1521.8C906.2 1521.8 907.8 1583.7 1022.7 1587.4C1022.7 1587.4 1130.4 1588.3 1139.2 1521.8C1139.2 1521.8 1155.6 1594.5 1022.7 1601.5C1022.7 1601.5 896.2 1598.3 906.2 1521.8Z" fill="url(#paint70_linear_18_1119)"/>
<g opacity="0.17">
<mask id="mask13_18_1119" style="mask-type:luminance" maskUnits="userSpaceOnUse" x="1140" y="1565" width="230" height="133">
<path d="M1140.6 1631.6L1254.6 1565.3L1369.4 1631.6L1255.4 1697.9L1140.6 1631.6Z" fill="white"/>
</mask>
<g mask="url(#mask13_18_1119)">
<path d="M1312 1598.5C1280.3 1580.2 1229.1 1580.2 1197.6 1598.5C1166.1 1616.8 1166.3 1646.5 1198 1664.8C1229.7 1683.1 1280.9 1683.1 1312.4 1664.8C1343.9 1646.4 1343.7 1616.8 1312 1598.5Z" fill="#1D1B30"/>
</g>
</g>
<path d="M1138.7 1576.4C1138.7 1576.4 1138.7 1639.1 1246.1 1644.5C1353.5 1649.9 1371 1586.5 1371 1586.5C1371 1586.5 1382.6 1524.1 1275.5 1512.4C1275.5 1512.4 1213.6 1504 1167.2 1534.1C1167.1 1534.2 1142.4 1546.4 1138.7 1576.4Z" fill="url(#paint71_linear_18_1119)"/>
<path d="M1349 1570.9C1349 1570.9 1347.7 1533.5 1255.1 1531.3C1255.1 1531.3 1168.3 1530.7 1161.2 1570.9C1161.2 1570.9 1148 1527 1255.1 1522.7C1255.1 1522.7 1357 1524.7 1349 1570.9Z" fill="url(#paint72_linear_18_1119)"/>
<path d="M1138.5 1578.2C1138.5 1578.2 1140.1 1640.1 1255 1643.8C1255 1643.8 1362.7 1644.7 1371.5 1578.2C1371.5 1578.2 1387.9 1650.9 1255 1657.9C1255 1657.9 1128.5 1654.6 1138.5 1578.2Z" fill="url(#paint73_linear_18_1119)"/>
<g opacity="0.17">
<mask id="mask14_18_1119" style="mask-type:luminance" maskUnits="userSpaceOnUse" x="896" y="1662" width="266" height="155">
<path d="M896 1739.3L1028.3 1662.5L1161.4 1739.3L1029.1 1816.2L896 1739.3Z" fill="white"/>
</mask>
<g mask="url(#mask14_18_1119)">
<path d="M1094.8 1700.9C1058 1679.7 998.6 1679.7 962.1 1700.9C925.6 1722.1 925.8 1756.5 962.5 1777.8C999.3 1799 1058.7 1799 1095.2 1777.8C1131.8 1756.5 1131.6 1722.1 1094.8 1700.9Z" fill="#1D1B30"/>
</g>
</g>
<path d="M912.399 1684.2C912.399 1684.2 912.399 1746.9 1019.8 1752.3C1127.2 1757.7 1144.7 1694.3 1144.7 1694.3C1144.7 1694.3 1156.3 1631.9 1049.2 1620.2C1049.2 1620.2 987.299 1611.8 940.899 1641.9C940.799 1642 915.999 1654.1 912.399 1684.2Z" fill="url(#paint74_linear_18_1119)"/>
<path d="M1122.7 1678.7C1122.7 1678.7 1121.4 1641.3 1028.8 1639.1C1028.8 1639.1 942 1638.5 934.9 1678.7C934.9 1678.7 921.7 1634.8 1028.8 1630.5C1028.7 1630.5 1130.7 1632.4 1122.7 1678.7Z" fill="url(#paint75_linear_18_1119)"/>
<path d="M912.199 1686C912.199 1686 913.799 1747.9 1028.7 1751.6C1028.7 1751.6 1136.4 1752.5 1145.2 1686C1145.2 1686 1161.6 1758.7 1028.7 1765.7C1028.6 1765.6 902.199 1762.4 912.199 1686Z" fill="url(#paint76_linear_18_1119)"/>
<path d="M46.5996 1526.3L332.3 1360.1L835.9 1650.9L550.2 1816.9L46.5996 1526.3Z" fill="url(#paint77_linear_18_1119)"/>
<path d="M352.6 1437.5L644.6 1605.9" stroke="url(#paint78_linear_18_1119)" stroke-width="6" stroke-miterlimit="10" stroke-linecap="round"/>
<path d="M328.3 1450.5L547.9 1577.5" stroke="url(#paint79_linear_18_1119)" stroke-width="6" stroke-miterlimit="10" stroke-linecap="round"/>
<path d="M300.899 1466.6L562.599 1618.9" stroke="url(#paint80_linear_18_1119)" stroke-width="3" stroke-miterlimit="10" stroke-linecap="round"/>
<path d="M284.899 1477.2L635.299 1678.9" stroke="url(#paint81_linear_18_1119)" stroke-width="3" stroke-miterlimit="10" stroke-linecap="round"/>
<path d="M269.6 1485.9L531.6 1636.9" stroke="url(#paint82_linear_18_1119)" stroke-width="3" stroke-miterlimit="10" stroke-linecap="round"/>
<path d="M1060.8 1339.3L1505.8 1081.6L2009.8 1372.3L1566.8 1630.4L1060.8 1339.3Z" fill="url(#paint83_linear_18_1119)"/>
<path d="M1339.9 1432.9C1344.48 1432.9 1348.2 1430.75 1348.2 1428.1C1348.2 1425.45 1344.48 1423.3 1339.9 1423.3C1335.32 1423.3 1331.6 1425.45 1331.6 1428.1C1331.6 1430.75 1335.32 1432.9 1339.9 1432.9Z" fill="white"/>
<path d="M1357.5 1443C1362.08 1443 1365.8 1440.85 1365.8 1438.2C1365.8 1435.55 1362.08 1433.4 1357.5 1433.4C1352.92 1433.4 1349.2 1435.55 1349.2 1438.2C1349.2 1440.85 1352.92 1443 1357.5 1443Z" fill="white"/>
<path d="M1374.8 1453.4C1379.38 1453.4 1383.1 1451.25 1383.1 1448.6C1383.1 1445.95 1379.38 1443.8 1374.8 1443.8C1370.22 1443.8 1366.5 1445.95 1366.5 1448.6C1366.5 1451.25 1370.22 1453.4 1374.8 1453.4Z" fill="white"/>
<path d="M1392.5 1463.4C1397.08 1463.4 1400.8 1461.25 1400.8 1458.6C1400.8 1455.95 1397.08 1453.8 1392.5 1453.8C1387.92 1453.8 1384.2 1455.95 1384.2 1458.6C1384.2 1461.25 1387.92 1463.4 1392.5 1463.4Z" fill="white"/>
<path d="M1409.6 1473.7C1414.18 1473.7 1417.9 1471.55 1417.9 1468.9C1417.9 1466.25 1414.18 1464.1 1409.6 1464.1C1405.02 1464.1 1401.3 1466.25 1401.3 1468.9C1401.3 1471.55 1405.02 1473.7 1409.6 1473.7Z" fill="white"/>
<path d="M1175.2 1146.7L1663.7 1428.2C1663.7 1428.2 1705.7 1448.2 1744.7 1423.2L2027.7 1258.7C2027.7 1258.7 2050.7 1237.4 2022 1218L1531.7 935C1531.7 935 1485.2 916.1 1447.5 943.8L1173.7 1102.5C1173.7 1102.4 1143.2 1122.2 1175.2 1146.7Z" fill="url(#paint84_linear_18_1119)"/>
<path d="M1175.2 1131.6L1663.7 1413.1C1663.7 1413.1 1705.7 1433.1 1744.7 1408.1L2027.7 1243.6C2027.7 1243.6 2050.7 1222.3 2022 1202.9L1531.7 919.8C1531.7 919.8 1485.2 900.9 1447.5 928.6L1173.7 1087.3C1173.7 1087.3 1143.2 1107.1 1175.2 1131.6Z" fill="url(#paint85_linear_18_1119)"/>
<path d="M1388.7 963.5L1448.6 928.6L2011.9 1253.9L1952.1 1288.6L1388.7 963.5Z" fill="#455A64"/>
<path d="M1305.5 1058.6L1365.5 1023.6L1486.1 1093.4L1426.1 1128.2L1305.5 1058.6Z" fill="url(#paint86_linear_18_1119)"/>
<path d="M1466.5 1151.4L1526.5 1116.4L1848.6 1302.6L1788.4 1337.6L1466.5 1151.4Z" fill="#CFD8DC"/>
<defs>
<linearGradient id="paint0_linear_18_1119" x1="207.759" y1="960.176" x2="1812.01" y2="960.176" gradientUnits="userSpaceOnUse">
<stop stop-color="#4F3E90"/>
<stop offset="1" stop-color="#171A31"/>
</linearGradient>
<linearGradient id="paint1_linear_18_1119" x1="865.295" y1="1523.61" x2="1123.34" y2="560.564" gradientUnits="userSpaceOnUse">
<stop stop-color="#463780"/>
<stop offset="0.143" stop-color="#382E68"/>
<stop offset="0.331" stop-color="#292550"/>
<stop offset="0.529" stop-color="#1F1F3F"/>
<stop offset="0.743" stop-color="#191B34"/>
<stop offset="1" stop-color="#171A31"/>
</linearGradient>
<linearGradient id="paint2_linear_18_1119" x1="409.458" y1="1237.72" x2="527.747" y2="1237.72" gradientUnits="userSpaceOnUse">
<stop stop-color="#4F3E90"/>
<stop offset="1" stop-color="#171A31"/>
</linearGradient>
<linearGradient id="paint3_linear_18_1119" x1="320.193" y1="962.479" x2="1676.07" y2="962.479" gradientUnits="userSpaceOnUse">
<stop stop-color="#7F00FF"/>
<stop offset="1" stop-color="#3F00FC"/>
</linearGradient>
<linearGradient id="paint4_linear_18_1119" x1="1158.97" y1="854.052" x2="1210.2" y2="662.837" gradientUnits="userSpaceOnUse">
<stop stop-color="#4F3E90"/>
<stop offset="1" stop-color="#171A31"/>
</linearGradient>
<linearGradient id="paint5_linear_18_1119" x1="1085.07" y1="868.909" x2="1107.46" y2="785.345" gradientUnits="userSpaceOnUse">
<stop stop-color="#7F00FF"/>
<stop offset="1" stop-color="#3F00FC"/>
</linearGradient>
<linearGradient id="paint6_linear_18_1119" x1="1273.54" y1="895.75" x2="1273.54" y2="758.504" gradientUnits="userSpaceOnUse">
<stop stop-color="#463780"/>
<stop offset="0.143" stop-color="#382E68"/>
<stop offset="0.331" stop-color="#292550"/>
<stop offset="0.529" stop-color="#1F1F3F"/>
<stop offset="0.743" stop-color="#191B34"/>
<stop offset="1" stop-color="#171A31"/>
</linearGradient>
<linearGradient id="paint7_linear_18_1119" x1="1158.97" y1="789.494" x2="1210.2" y2="598.279" gradientUnits="userSpaceOnUse">
<stop stop-color="#4F3E90"/>
<stop offset="1" stop-color="#171A31"/>
</linearGradient>
<linearGradient id="paint8_linear_18_1119" x1="1085.07" y1="804.353" x2="1107.46" y2="720.787" gradientUnits="userSpaceOnUse">
<stop stop-color="#7F00FF"/>
<stop offset="1" stop-color="#3F00FC"/>
</linearGradient>
<linearGradient id="paint9_linear_18_1119" x1="1273.54" y1="831.192" x2="1273.54" y2="693.946" gradientUnits="userSpaceOnUse">
<stop stop-color="#463780"/>
<stop offset="0.143" stop-color="#382E68"/>
<stop offset="0.331" stop-color="#292550"/>
<stop offset="0.529" stop-color="#1F1F3F"/>
<stop offset="0.743" stop-color="#191B34"/>
<stop offset="1" stop-color="#171A31"/>
</linearGradient>
<linearGradient id="paint10_linear_18_1119" x1="1158.97" y1="724.936" x2="1210.2" y2="533.722" gradientUnits="userSpaceOnUse">
<stop stop-color="#4F3E90"/>
<stop offset="1" stop-color="#171A31"/>
</linearGradient>
<linearGradient id="paint11_linear_18_1119" x1="1085.07" y1="739.795" x2="1107.46" y2="656.229" gradientUnits="userSpaceOnUse">
<stop stop-color="#7F00FF"/>
<stop offset="1" stop-color="#3F00FC"/>
</linearGradient>
<linearGradient id="paint12_linear_18_1119" x1="1273.54" y1="766.636" x2="1273.54" y2="629.39" gradientUnits="userSpaceOnUse">
<stop stop-color="#463780"/>
<stop offset="0.143" stop-color="#382E68"/>
<stop offset="0.331" stop-color="#292550"/>
<stop offset="0.529" stop-color="#1F1F3F"/>
<stop offset="0.743" stop-color="#191B34"/>
<stop offset="1" stop-color="#171A31"/>
</linearGradient>
<linearGradient id="paint13_linear_18_1119" x1="1158.97" y1="660.38" x2="1210.2" y2="469.165" gradientUnits="userSpaceOnUse">
<stop stop-color="#4F3E90"/>
<stop offset="1" stop-color="#171A31"/>
</linearGradient>
<linearGradient id="paint14_linear_18_1119" x1="1085.07" y1="675.237" x2="1107.46" y2="591.673" gradientUnits="userSpaceOnUse">
<stop stop-color="#7F00FF"/>
<stop offset="1" stop-color="#3F00FC"/>
</linearGradient>
<linearGradient id="paint15_linear_18_1119" x1="1273.54" y1="702.078" x2="1273.54" y2="564.832" gradientUnits="userSpaceOnUse">
<stop stop-color="#463780"/>
<stop offset="0.143" stop-color="#382E68"/>
<stop offset="0.331" stop-color="#292550"/>
<stop offset="0.529" stop-color="#1F1F3F"/>
<stop offset="0.743" stop-color="#191B34"/>
<stop offset="1" stop-color="#171A31"/>
</linearGradient>
<linearGradient id="paint16_linear_18_1119" x1="1158.97" y1="595.822" x2="1210.2" y2="404.607" gradientUnits="userSpaceOnUse">
<stop stop-color="#4F3E90"/>
<stop offset="1" stop-color="#171A31"/>
</linearGradient>
<linearGradient id="paint17_linear_18_1119" x1="1085.07" y1="610.68" x2="1107.46" y2="527.115" gradientUnits="userSpaceOnUse">
<stop stop-color="#7F00FF"/>
<stop offset="1" stop-color="#3F00FC"/>
</linearGradient>
<linearGradient id="paint18_linear_18_1119" x1="1273.54" y1="637.521" x2="1273.54" y2="500.274" gradientUnits="userSpaceOnUse">
<stop stop-color="#463780"/>
<stop offset="0.143" stop-color="#382E68"/>
<stop offset="0.331" stop-color="#292550"/>
<stop offset="0.529" stop-color="#1F1F3F"/>
<stop offset="0.743" stop-color="#191B34"/>
<stop offset="1" stop-color="#171A31"/>
</linearGradient>
<linearGradient id="paint19_linear_18_1119" x1="1169.88" y1="554.705" x2="1200.51" y2="440.373" gradientUnits="userSpaceOnUse">
<stop stop-color="#7F00FF" stop-opacity="0.4"/>
<stop offset="1" stop-color="#3F00FC"/>
</linearGradient>
<linearGradient id="paint20_linear_18_1119" x1="1169.83" y1="459.486" x2="1200.56" y2="574.175" gradientUnits="userSpaceOnUse">
<stop stop-color="#7F00FF" stop-opacity="0.7"/>
<stop offset="1" stop-color="#3F00FC" stop-opacity="0.6"/>
</linearGradient>
<linearGradient id="paint21_linear_18_1119" x1="1169.83" y1="478.417" x2="1200.56" y2="593.106" gradientUnits="userSpaceOnUse">
<stop stop-color="#7F00FF" stop-opacity="0.7"/>
<stop offset="1" stop-color="#3F00FC" stop-opacity="0.6"/>
</linearGradient>
<linearGradient id="paint22_linear_18_1119" x1="1169.83" y1="497.348" x2="1200.56" y2="612.037" gradientUnits="userSpaceOnUse">
<stop stop-color="#7F00FF" stop-opacity="0.7"/>
<stop offset="1" stop-color="#3F00FC" stop-opacity="0.6"/>
</linearGradient>
<linearGradient id="paint23_linear_18_1119" x1="1169.83" y1="516.278" x2="1200.56" y2="630.968" gradientUnits="userSpaceOnUse">
<stop stop-color="#7F00FF" stop-opacity="0.7"/>
<stop offset="1" stop-color="#3F00FC" stop-opacity="0.6"/>
</linearGradient>
<linearGradient id="paint24_linear_18_1119" x1="1169.83" y1="535.209" x2="1200.56" y2="649.898" gradientUnits="userSpaceOnUse">
<stop stop-color="#7F00FF" stop-opacity="0.7"/>
<stop offset="1" stop-color="#3F00FC" stop-opacity="0.6"/>
</linearGradient>
<linearGradient id="paint25_linear_18_1119" x1="1169.83" y1="554.14" x2="1200.56" y2="668.829" gradientUnits="userSpaceOnUse">
<stop stop-color="#7F00FF" stop-opacity="0.7"/>
<stop offset="1" stop-color="#3F00FC" stop-opacity="0.6"/>
</linearGradient>
<linearGradient id="paint26_linear_18_1119" x1="1136.54" y1="543.903" x2="1232.64" y2="185.255" gradientUnits="userSpaceOnUse">
<stop stop-color="white" stop-opacity="0"/>
<stop offset="1" stop-color="white" stop-opacity="0.3"/>
</linearGradient>
<linearGradient id="paint27_linear_18_1119" x1="1149.16" y1="486.389" x2="1159.28" y2="486.389" gradientUnits="userSpaceOnUse">
<stop stop-color="white" stop-opacity="0.6"/>
<stop offset="1" stop-color="white"/>
</linearGradient>
<linearGradient id="paint28_linear_18_1119" x1="1112.04" y1="389.177" x2="1116.15" y2="389.177" gradientUnits="userSpaceOnUse">
<stop stop-color="white" stop-opacity="0.6"/>
<stop offset="1" stop-color="white"/>
</linearGradient>
<linearGradient id="paint29_linear_18_1119" x1="1247.31" y1="410.049" x2="1252.78" y2="410.049" gradientUnits="userSpaceOnUse">
<stop stop-color="white" stop-opacity="0.6"/>
<stop offset="1" stop-color="white"/>
</linearGradient>
<linearGradient id="paint30_linear_18_1119" x1="1190.12" y1="431.503" x2="1195.59" y2="431.503" gradientUnits="userSpaceOnUse">
<stop stop-color="white" stop-opacity="0.6"/>
<stop offset="1" stop-color="white"/>
</linearGradient>
<linearGradient id="paint31_linear_18_1119" x1="1437.33" y1="294.987" x2="1442.44" y2="294.987" gradientUnits="userSpaceOnUse">
<stop stop-color="white" stop-opacity="0.6"/>
<stop offset="1" stop-color="white"/>
</linearGradient>
<linearGradient id="paint32_linear_18_1119" x1="1501.83" y1="473.413" x2="1511.95" y2="473.413" gradientUnits="userSpaceOnUse">
<stop stop-color="white" stop-opacity="0.6"/>
<stop offset="1" stop-color="white"/>
</linearGradient>
<linearGradient id="paint33_linear_18_1119" x1="1606.66" y1="402.333" x2="1612.14" y2="402.333" gradientUnits="userSpaceOnUse">
<stop stop-color="white" stop-opacity="0.6"/>
<stop offset="1" stop-color="white"/>
</linearGradient>
<linearGradient id="paint34_linear_18_1119" x1="613.185" y1="365.669" x2="618.294" y2="365.669" gradientUnits="userSpaceOnUse">
<stop stop-color="white" stop-opacity="0.6"/>
<stop offset="1" stop-color="white"/>
</linearGradient>
<linearGradient id="paint35_linear_18_1119" x1="802.186" y1="370.728" x2="812.305" y2="370.728" gradientUnits="userSpaceOnUse">
<stop stop-color="white" stop-opacity="0.6"/>
<stop offset="1" stop-color="white"/>
</linearGradient>
<linearGradient id="paint36_linear_18_1119" x1="849.829" y1="321.103" x2="855.304" y2="321.103" gradientUnits="userSpaceOnUse">
<stop stop-color="white" stop-opacity="0.6"/>
<stop offset="1" stop-color="white"/>
</linearGradient>
<linearGradient id="paint37_linear_18_1119" x1="910.08" y1="997.807" x2="961.316" y2="806.592" gradientUnits="userSpaceOnUse">
<stop stop-color="#4F3E90"/>
<stop offset="1" stop-color="#171A31"/>
</linearGradient>
<linearGradient id="paint38_linear_18_1119" x1="836.182" y1="1012.66" x2="858.573" y2="929.1" gradientUnits="userSpaceOnUse">
<stop stop-color="#7F00FF"/>
<stop offset="1" stop-color="#3F00FC"/>
</linearGradient>
<linearGradient id="paint39_linear_18_1119" x1="1024.66" y1="1039.51" x2="1024.66" y2="902.259" gradientUnits="userSpaceOnUse">
<stop stop-color="#463780"/>
<stop offset="0.143" stop-color="#382E68"/>
<stop offset="0.331" stop-color="#292550"/>
<stop offset="0.529" stop-color="#1F1F3F"/>
<stop offset="0.743" stop-color="#191B34"/>
<stop offset="1" stop-color="#171A31"/>
</linearGradient>
<linearGradient id="paint40_linear_18_1119" x1="910.08" y1="933.249" x2="961.316" y2="742.034" gradientUnits="userSpaceOnUse">
<stop stop-color="#4F3E90"/>
<stop offset="1" stop-color="#171A31"/>
</linearGradient>
<linearGradient id="paint41_linear_18_1119" x1="836.182" y1="948.107" x2="858.573" y2="864.542" gradientUnits="userSpaceOnUse">
<stop stop-color="#7F00FF"/>
<stop offset="1" stop-color="#3F00FC"/>
</linearGradient>
<linearGradient id="paint42_linear_18_1119" x1="1024.66" y1="974.947" x2="1024.66" y2="837.701" gradientUnits="userSpaceOnUse">
<stop stop-color="#463780"/>
<stop offset="0.143" stop-color="#382E68"/>
<stop offset="0.331" stop-color="#292550"/>
<stop offset="0.529" stop-color="#1F1F3F"/>
<stop offset="0.743" stop-color="#191B34"/>
<stop offset="1" stop-color="#171A31"/>
</linearGradient>
<linearGradient id="paint43_linear_18_1119" x1="910.08" y1="868.691" x2="961.316" y2="677.477" gradientUnits="userSpaceOnUse">
<stop stop-color="#4F3E90"/>
<stop offset="1" stop-color="#171A31"/>
</linearGradient>
<linearGradient id="paint44_linear_18_1119" x1="836.182" y1="883.55" x2="858.573" y2="799.984" gradientUnits="userSpaceOnUse">
<stop stop-color="#7F00FF"/>
<stop offset="1" stop-color="#3F00FC"/>
</linearGradient>
<linearGradient id="paint45_linear_18_1119" x1="1024.66" y1="910.391" x2="1024.66" y2="773.145" gradientUnits="userSpaceOnUse">
<stop stop-color="#463780"/>
<stop offset="0.143" stop-color="#382E68"/>
<stop offset="0.331" stop-color="#292550"/>
<stop offset="0.529" stop-color="#1F1F3F"/>
<stop offset="0.743" stop-color="#191B34"/>
<stop offset="1" stop-color="#171A31"/>
</linearGradient>
<linearGradient id="paint46_linear_18_1119" x1="920.99" y1="827.574" x2="951.626" y2="713.243" gradientUnits="userSpaceOnUse">
<stop stop-color="#7F00FF" stop-opacity="0.4"/>
<stop offset="1" stop-color="#3F00FC"/>
</linearGradient>
<linearGradient id="paint47_linear_18_1119" x1="920.937" y1="732.356" x2="951.668" y2="847.045" gradientUnits="userSpaceOnUse">
<stop stop-color="#7F00FF" stop-opacity="0.7"/>
<stop offset="1" stop-color="#3F00FC" stop-opacity="0.6"/>
</linearGradient>
<linearGradient id="paint48_linear_18_1119" x1="920.937" y1="751.287" x2="951.668" y2="865.976" gradientUnits="userSpaceOnUse">
<stop stop-color="#7F00FF" stop-opacity="0.7"/>
<stop offset="1" stop-color="#3F00FC" stop-opacity="0.6"/>
</linearGradient>
<linearGradient id="paint49_linear_18_1119" x1="920.937" y1="770.218" x2="951.668" y2="884.906" gradientUnits="userSpaceOnUse">
<stop stop-color="#7F00FF" stop-opacity="0.7"/>
<stop offset="1" stop-color="#3F00FC" stop-opacity="0.6"/>
</linearGradient>
<linearGradient id="paint50_linear_18_1119" x1="920.937" y1="789.148" x2="951.668" y2="903.837" gradientUnits="userSpaceOnUse">
<stop stop-color="#7F00FF" stop-opacity="0.7"/>
<stop offset="1" stop-color="#3F00FC" stop-opacity="0.6"/>
</linearGradient>
<linearGradient id="paint51_linear_18_1119" x1="920.937" y1="808.079" x2="951.668" y2="922.768" gradientUnits="userSpaceOnUse">
<stop stop-color="#7F00FF" stop-opacity="0.7"/>
<stop offset="1" stop-color="#3F00FC" stop-opacity="0.6"/>
</linearGradient>
<linearGradient id="paint52_linear_18_1119" x1="920.937" y1="827.01" x2="951.668" y2="941.698" gradientUnits="userSpaceOnUse">
<stop stop-color="#7F00FF" stop-opacity="0.7"/>
<stop offset="1" stop-color="#3F00FC" stop-opacity="0.6"/>
</linearGradient>
<linearGradient id="paint53_linear_18_1119" x1="887.645" y1="816.772" x2="983.745" y2="458.124" gradientUnits="userSpaceOnUse">
<stop stop-color="white" stop-opacity="0"/>
<stop offset="1" stop-color="white" stop-opacity="0.3"/>
</linearGradient>
<linearGradient id="paint54_linear_18_1119" x1="nan" y1="nan" x2="nan" y2="nan" gradientUnits="userSpaceOnUse">
<stop stop-color="#00FF99"/>
<stop offset="1" stop-color="#33CCFF"/>
</linearGradient>
<linearGradient id="paint55_linear_18_1119" x1="nan" y1="nan" x2="nan" y2="nan" gradientUnits="userSpaceOnUse">
<stop stop-color="#00FF99"/>
<stop offset="1" stop-color="#33CCFF"/>
</linearGradient>
<linearGradient id="paint56_linear_18_1119" x1="nan" y1="nan" x2="nan" y2="nan" gradientUnits="userSpaceOnUse">
<stop stop-color="#00FF99"/>
<stop offset="1" stop-color="#33CCFF"/>
</linearGradient>
<linearGradient id="paint57_linear_18_1119" x1="nan" y1="nan" x2="nan" y2="nan" gradientUnits="userSpaceOnUse">
<stop stop-color="#00FF99"/>
<stop offset="1" stop-color="#33CCFF"/>
</linearGradient>
<linearGradient id="paint58_linear_18_1119" x1="nan" y1="nan" x2="nan" y2="nan" gradientUnits="userSpaceOnUse">
<stop stop-color="#00FF99"/>
<stop offset="1" stop-color="#33CCFF"/>
</linearGradient>
<linearGradient id="paint59_linear_18_1119" x1="nan" y1="nan" x2="nan" y2="nan" gradientUnits="userSpaceOnUse">
<stop stop-color="#00FF99"/>
<stop offset="1" stop-color="#33CCFF"/>
</linearGradient>
<linearGradient id="paint60_linear_18_1119" x1="nan" y1="nan" x2="nan" y2="nan" gradientUnits="userSpaceOnUse">
<stop stop-color="#00FF99"/>
<stop offset="1" stop-color="#33CCFF"/>
</linearGradient>
<linearGradient id="paint61_linear_18_1119" x1="nan" y1="nan" x2="nan" y2="nan" gradientUnits="userSpaceOnUse">
<stop stop-color="#00FF99"/>
<stop offset="1" stop-color="#33CCFF"/>
</linearGradient>
<linearGradient id="paint62_linear_18_1119" x1="nan" y1="nan" x2="nan" y2="nan" gradientUnits="userSpaceOnUse">
<stop stop-color="#00FF99"/>
<stop offset="1" stop-color="#33CCFF"/>
</linearGradient>
<linearGradient id="paint63_linear_18_1119" x1="nan" y1="nan" x2="nan" y2="nan" gradientUnits="userSpaceOnUse">
<stop stop-color="#00FF99"/>
<stop offset="1" stop-color="#33CCFF"/>
</linearGradient>
<linearGradient id="paint64_linear_18_1119" x1="nan" y1="nan" x2="nan" y2="nan" gradientUnits="userSpaceOnUse">
<stop stop-color="#00FF99"/>
<stop offset="1" stop-color="#33CCFF"/>
</linearGradient>
<linearGradient id="paint65_linear_18_1119" x1="nan" y1="nan" x2="nan" y2="nan" gradientUnits="userSpaceOnUse">
<stop stop-color="#00FF99"/>
<stop offset="1" stop-color="#33CCFF"/>
</linearGradient>
<linearGradient id="paint66_linear_18_1119" x1="nan" y1="nan" x2="nan" y2="nan" gradientUnits="userSpaceOnUse">
<stop stop-color="#00FF99"/>
<stop offset="1" stop-color="#33CCFF"/>
</linearGradient>
<linearGradient id="paint67_linear_18_1119" x1="nan" y1="nan" x2="nan" y2="nan" gradientUnits="userSpaceOnUse">
<stop stop-color="#00FF99"/>
<stop offset="1" stop-color="#33CCFF"/>
</linearGradient>
<linearGradient id="paint68_linear_18_1119" x1="906.406" y1="1521.81" x2="1139" y2="1521.81" gradientUnits="userSpaceOnUse">
<stop stop-color="#4F3E90"/>
<stop offset="1" stop-color="#171A31"/>
</linearGradient>
<linearGradient id="paint69_linear_18_1119" x1="1117.13" y1="1490.41" x2="928.278" y2="1490.41" gradientUnits="userSpaceOnUse">
<stop stop-color="#4F3E90"/>
<stop offset="1" stop-color="#171A31"/>
</linearGradient>
<linearGradient id="paint70_linear_18_1119" x1="1003.38" y1="1602.16" x2="1032.56" y2="1493.26" gradientUnits="userSpaceOnUse">
<stop stop-color="#4F3E90"/>
<stop offset="1" stop-color="#171A31"/>
</linearGradient>
<linearGradient id="paint71_linear_18_1119" x1="1138.72" y1="1578.2" x2="1371.32" y2="1578.2" gradientUnits="userSpaceOnUse">
<stop stop-color="#4F3E90"/>
<stop offset="1" stop-color="#171A31"/>
</linearGradient>
<linearGradient id="paint72_linear_18_1119" x1="1349.44" y1="1546.8" x2="1160.59" y2="1546.8" gradientUnits="userSpaceOnUse">
<stop stop-color="#4F3E90"/>
<stop offset="1" stop-color="#171A31"/>
</linearGradient>
<linearGradient id="paint73_linear_18_1119" x1="1235.69" y1="1658.55" x2="1264.87" y2="1549.65" gradientUnits="userSpaceOnUse">
<stop stop-color="#4F3E90"/>
<stop offset="1" stop-color="#171A31"/>
</linearGradient>
<linearGradient id="paint74_linear_18_1119" x1="912.392" y1="1685.95" x2="1144.99" y2="1685.95" gradientUnits="userSpaceOnUse">
<stop stop-color="#4F3E90"/>
<stop offset="1" stop-color="#171A31"/>
</linearGradient>
<linearGradient id="paint75_linear_18_1119" x1="1123.11" y1="1654.55" x2="934.265" y2="1654.55" gradientUnits="userSpaceOnUse">
<stop stop-color="#4F3E90"/>
<stop offset="1" stop-color="#171A31"/>
</linearGradient>
<linearGradient id="paint76_linear_18_1119" x1="1009.36" y1="1766.3" x2="1038.54" y2="1657.4" gradientUnits="userSpaceOnUse">
<stop stop-color="#4F3E90"/>
<stop offset="1" stop-color="#171A31"/>
</linearGradient>
<linearGradient id="paint77_linear_18_1119" x1="46.5536" y1="1588.53" x2="835.887" y2="1588.53" gradientUnits="userSpaceOnUse">
<stop stop-color="#4F3E90"/>
<stop offset="1" stop-color="#171A31"/>
</linearGradient>
<linearGradient id="paint78_linear_18_1119" x1="486.579" y1="1566.62" x2="510.655" y2="1476.77" gradientUnits="userSpaceOnUse">
<stop stop-color="#7F00FF"/>
<stop offset="1" stop-color="#3F00FC"/>
</linearGradient>
<linearGradient id="paint79_linear_18_1119" x1="428.822" y1="1548.71" x2="447.41" y2="1479.34" gradientUnits="userSpaceOnUse">
<stop stop-color="#7F00FF"/>
<stop offset="1" stop-color="#3F00FC"/>
</linearGradient>
<linearGradient id="paint80_linear_18_1119" x1="421.125" y1="1582.5" x2="442.44" y2="1502.95" gradientUnits="userSpaceOnUse">
<stop stop-color="#7F00FF"/>
<stop offset="1" stop-color="#3F00FC"/>
</linearGradient>
<linearGradient id="paint81_linear_18_1119" x1="446.253" y1="1629.76" x2="473.978" y2="1526.29" gradientUnits="userSpaceOnUse">
<stop stop-color="#7F00FF"/>
<stop offset="1" stop-color="#3F00FC"/>
</linearGradient>
<linearGradient id="paint82_linear_18_1119" x1="390.129" y1="1600.5" x2="411.104" y2="1522.22" gradientUnits="userSpaceOnUse">
<stop stop-color="#7F00FF"/>
<stop offset="1" stop-color="#3F00FC"/>
</linearGradient>
<linearGradient id="paint83_linear_18_1119" x1="1468.77" y1="1604.15" x2="1601.9" y2="1107.3" gradientUnits="userSpaceOnUse">
<stop stop-color="#4F3E90"/>
<stop offset="1" stop-color="#171A31"/>
</linearGradient>
<linearGradient id="paint84_linear_18_1119" x1="1160.59" y1="1182.21" x2="2036.45" y2="1182.21" gradientUnits="userSpaceOnUse">
<stop stop-color="#4F3E90"/>
<stop offset="1" stop-color="#171A31"/>
</linearGradient>
<linearGradient id="paint85_linear_18_1119" x1="1160.59" y1="1167.09" x2="2036.45" y2="1167.09" gradientUnits="userSpaceOnUse">
<stop stop-color="#7F00FF"/>
<stop offset="1" stop-color="#3F00FC"/>
</linearGradient>
<linearGradient id="paint86_linear_18_1119" x1="1305.45" y1="1075.87" x2="1486.1" y2="1075.87" gradientUnits="userSpaceOnUse">
<stop stop-color="#00FF99"/>
<stop offset="1" stop-color="#33CCFF"/>
</linearGradient>
</defs>
</svg>
