<svg width="2083" height="2083" viewBox="0 0 2083 2083" fill="none" xmlns="http://www.w3.org/2000/svg">
<path d="M1595.6 1510.2L1946.2 1714.2L1665.6 1878.2L1196.9 1606.8L1112.2 1654.8L865.599 1510.2L950.899 1459.5L753.899 1346.6" stroke="url(#paint0_linear_18_990)" stroke-width="6" stroke-miterlimit="10"/>
<g opacity="0.17">
<mask id="mask0_18_990" style="mask-type:luminance" maskUnits="userSpaceOnUse" x="7" y="775" width="921" height="534">
<path d="M7.09961 1041.8L465.7 775.3L927.3 1041.8L468.7 1308.3L7.09961 1041.8Z" fill="white"/>
</mask>
<g mask="url(#mask0_18_990)">
<path d="M696.499 908.5C568.999 834.9 362.999 834.9 236.399 908.5C109.799 982.1 110.399 1101.4 237.899 1175C365.399 1248.6 571.399 1248.6 697.999 1175C824.699 1101.5 823.999 982.1 696.499 908.5Z" fill="#1D1B30"/>
</g>
</g>
<path d="M1061.7 1165.1L959.699 1104.5" stroke="url(#paint1_linear_18_990)" stroke-width="6" stroke-miterlimit="10"/>
<path d="M1053.1 1257.9L957.1 1195.9L849.1 1249.9L810.1 1226.9" stroke="url(#paint2_linear_18_990)" stroke-width="6" stroke-miterlimit="10"/>
<path d="M1427.1 1389.7L876.2 1728.4L339.8 1418.1" stroke="url(#paint3_linear_18_990)" stroke-width="6" stroke-miterlimit="10"/>
<path opacity="0.3" d="M1492.9 1102.6L1969.1 1398.9L1496.1 1695.3L1019.9 1399L1492.9 1102.6Z" fill="#1D1B30"/>
<path d="M1263.4 560.1L1493.8 426.2L1725.7 560V1166.5L1495.3 1300.4L1263.4 1166.6V560.1Z" fill="url(#paint4_linear_18_990)"/>
<path d="M1493.8 426.2L1725.7 560L1495.3 693.8L1263.4 560.1L1493.8 426.2Z" fill="url(#paint5_linear_18_990)"/>
<path d="M1494.1 479.7L1614.2 549.1L1494.9 618.4L1374.7 549.1L1494.1 479.7Z" fill="url(#paint6_linear_18_990)"/>
<path d="M1490.6 616.2L1374.9 549V560L1490.6 628.5C1493.1 630 1496.1 630 1498.6 628.5L1614.3 561.3V548.9L1498.6 616.1C1496.1 617.6 1493.1 617.6 1490.6 616.2Z" fill="url(#paint7_linear_18_990)"/>
<path opacity="0.2" d="M1374.7 549.1L1491 616.2C1493.4 617.6 1496.4 617.6 1498.8 616.2L1614.2 549.1" stroke="url(#paint8_linear_18_990)" stroke-width="2" stroke-miterlimit="10"/>
<path d="M999.6 1314.1V1015.7L1229.5 882.1L1460.9 1015.6V1314.1L1231.1 1447.6L999.6 1314.1Z" fill="url(#paint9_linear_18_990)"/>
<path d="M1228.7 835L1460.6 968.8L1230.3 1102.7L998.399 968.9L1228.7 835Z" fill="url(#paint10_linear_18_990)"/>
<path d="M998.399 968.9L998.199 1014L1230.3 1147.8V1102.7L998.399 968.9Z" fill="url(#paint11_linear_18_990)"/>
<path d="M1230.3 1147.9V1102.7L1460.7 968.9L1460.5 1014.1L1230.3 1147.9Z" fill="url(#paint12_linear_18_990)"/>
<path d="M1228.7 748L1460.6 881.8L1230.3 1015.6L998.399 881.9L1228.7 748Z" fill="url(#paint13_linear_18_990)"/>
<path d="M998.399 881.9L998.199 927L1230.3 1060.8V1015.7L998.399 881.9Z" fill="url(#paint14_linear_18_990)"/>
<path d="M1230.3 1060.8V1015.7L1460.7 881.9L1460.5 927L1230.3 1060.8Z" fill="url(#paint15_linear_18_990)"/>
<path d="M1228.7 661L1460.6 794.8L1230.3 928.6L998.399 794.9L1228.7 661Z" fill="url(#paint16_linear_18_990)"/>
<path d="M998.399 794.9L998.199 840L1230.3 973.8V928.7L998.399 794.9Z" fill="url(#paint17_linear_18_990)"/>
<path d="M1230.3 973.8V928.7L1460.7 794.9L1460.5 840L1230.3 973.8Z" fill="url(#paint18_linear_18_990)"/>
<path d="M1228.7 574L1460.6 707.8L1230.3 841.6L998.399 707.9L1228.7 574Z" fill="url(#paint19_linear_18_990)"/>
<path d="M998.399 707.9L998.199 753L1230.3 886.8V841.7L998.399 707.9Z" fill="url(#paint20_linear_18_990)"/>
<path d="M1230.3 886.8V841.7L1460.7 707.9L1460.5 753L1230.3 886.8Z" fill="url(#paint21_linear_18_990)"/>
<path d="M1229.5 573.4L1461.4 707.3L1231.1 841.1L999.1 707.3L1229.5 573.4Z" fill="url(#paint22_linear_18_990)"/>
<path d="M1229.8 627L1350 696.4L1230.7 765.7L1110.5 696.4L1229.8 627Z" fill="url(#paint23_linear_18_990)"/>
<path d="M1226.4 763.4L1110.6 696.3V707.3L1226.3 775.8C1228.8 777.3 1231.8 777.3 1234.3 775.8L1350 708.6V696.2L1234.3 763.4C1231.9 764.9 1228.8 764.9 1226.4 763.4Z" fill="url(#paint24_linear_18_990)"/>
<path opacity="0.2" d="M1110.5 696.4L1226.8 763.5C1229.2 764.9 1232.2 764.9 1234.6 763.5L1350 696.4" stroke="url(#paint25_linear_18_990)" stroke-width="2" stroke-miterlimit="10"/>
<path d="M1518.6 708.8L1748.9 574.9L1980.8 708.7V1315.3L1750.5 1449.1L1518.6 1315.3V708.8Z" fill="url(#paint26_linear_18_990)"/>
<path d="M1748.9 574.9L1980.8 708.7L1750.5 842.6L1518.6 708.8L1748.9 574.9Z" fill="url(#paint27_linear_18_990)"/>
<path d="M1263.4 857.5L1493.8 723.7L1725.7 857.5V1464L1495.3 1597.9L1263.4 1464.1V857.5Z" fill="url(#paint28_linear_18_990)"/>
<path opacity="0.4" d="M1808.6 591.9C1810.04 591.9 1811.2 590.736 1811.2 589.3C1811.2 587.864 1810.04 586.7 1808.6 586.7C1807.16 586.7 1806 587.864 1806 589.3C1806 590.736 1807.16 591.9 1808.6 591.9Z" fill="url(#paint29_linear_18_990)"/>
<path opacity="0.55" d="M1788.4 554.5C1789.89 554.5 1791.1 553.291 1791.1 551.8C1791.1 550.309 1789.89 549.1 1788.4 549.1C1786.91 549.1 1785.7 550.309 1785.7 551.8C1785.7 553.291 1786.91 554.5 1788.4 554.5Z" fill="url(#paint30_linear_18_990)"/>
<path d="M1493.8 723.7L1725.7 857.5L1495.3 991.3L1263.4 857.5L1493.8 723.7Z" fill="url(#paint31_linear_18_990)"/>
<path d="M1749.3 623.8L1864.3 690.1L1750.1 756.5L1635.1 690.1L1749.3 623.8Z" fill="url(#paint32_linear_18_990)"/>
<path d="M1635.1 690.2L1635 712.5L1750.1 778.9V756.5L1635.1 690.2Z" fill="url(#paint33_linear_18_990)"/>
<path d="M1750.1 778.9V756.5L1864.4 690.2L1864.3 712.5L1750.1 778.9Z" fill="url(#paint34_linear_18_990)"/>
<path d="M1749.9 648.7L1818.6 688.4L1750.4 728.1L1681.6 688.4L1749.9 648.7Z" fill="url(#paint35_linear_18_990)"/>
<mask id="mask1_18_990" style="mask-type:luminance" maskUnits="userSpaceOnUse" x="1681" y="648" width="138" height="81">
<path d="M1749.9 648.7L1818.6 688.4L1750.4 728.1L1681.6 688.4L1749.9 648.7Z" fill="white"/>
</mask>
<g mask="url(#mask1_18_990)">
<path d="M1749.9 661.2L1818.6 700.8L1750.4 740.5L1681.6 700.9L1749.9 661.2Z" fill="url(#paint36_linear_18_990)"/>
</g>
<mask id="mask2_18_990" style="mask-type:luminance" maskUnits="userSpaceOnUse" x="1681" y="648" width="138" height="81">
<path d="M1749.9 648.7L1818.6 688.4L1750.4 728.1L1681.6 688.4L1749.9 648.7Z" fill="white"/>
</mask>
<g mask="url(#mask2_18_990)">
<path d="M1749.9 673.4L1818.6 713.1L1750.4 752.8L1681.6 713.1L1749.9 673.4Z" fill="url(#paint37_linear_18_990)"/>
</g>
<mask id="mask3_18_990" style="mask-type:luminance" maskUnits="userSpaceOnUse" x="1681" y="648" width="138" height="81">
<path d="M1749.9 648.7L1818.6 688.4L1750.4 728.1L1681.6 688.4L1749.9 648.7Z" fill="white"/>
</mask>
<g mask="url(#mask3_18_990)">
<path d="M1749.9 685.7L1818.6 725.3L1750.4 765L1681.6 725.4L1749.9 685.7Z" fill="url(#paint38_linear_18_990)"/>
</g>
<mask id="mask4_18_990" style="mask-type:luminance" maskUnits="userSpaceOnUse" x="1681" y="648" width="138" height="81">
<path d="M1749.9 648.7L1818.6 688.4L1750.4 728.1L1681.6 688.4L1749.9 648.7Z" fill="white"/>
</mask>
<g mask="url(#mask4_18_990)">
<path d="M1749.9 697.9L1818.6 737.6L1750.4 777.3L1681.6 737.6L1749.9 697.9Z" fill="url(#paint39_linear_18_990)"/>
</g>
<mask id="mask5_18_990" style="mask-type:luminance" maskUnits="userSpaceOnUse" x="1681" y="648" width="138" height="81">
<path d="M1749.9 648.7L1818.6 688.4L1750.4 728.1L1681.6 688.4L1749.9 648.7Z" fill="white"/>
</mask>
<g mask="url(#mask5_18_990)">
<path d="M1749.9 710.1L1818.6 749.8L1750.4 789.5L1681.6 749.8L1749.9 710.1Z" fill="url(#paint40_linear_18_990)"/>
</g>
<mask id="mask6_18_990" style="mask-type:luminance" maskUnits="userSpaceOnUse" x="1681" y="648" width="138" height="81">
<path d="M1749.9 648.7L1818.6 688.4L1750.4 728.1L1681.6 688.4L1749.9 648.7Z" fill="white"/>
</mask>
<g mask="url(#mask6_18_990)">
<path d="M1749.9 722.4L1818.6 762.1L1750.4 801.7L1681.6 762.1L1749.9 722.4Z" fill="url(#paint41_linear_18_990)"/>
</g>
<path opacity="0.55" d="M1755.1 647.5C1756.09 647.5 1756.9 646.694 1756.9 645.7C1756.9 644.706 1756.09 643.9 1755.1 643.9C1754.11 643.9 1753.3 644.706 1753.3 645.7C1753.3 646.694 1754.11 647.5 1755.1 647.5Z" fill="url(#paint42_linear_18_990)"/>
<path d="M1292 948.9L1466.7 1049.6V1506.5L1292 1405.8V948.9Z" fill="url(#paint43_linear_18_990)"/>
<path opacity="0.05" d="M1498.6 926L1627.2 914.7L1725.7 857.5L1493.8 723.7L1443.8 806.5L1498.6 926Z" fill="url(#paint44_linear_18_990)"/>
<path d="M1494.1 777.2L1614.2 846.6L1494.9 915.9L1374.7 846.6L1494.1 777.2Z" fill="url(#paint45_linear_18_990)"/>
<path d="M1490.6 913.7L1374.9 846.5V857.5L1490.6 926C1493.1 927.5 1496.1 927.5 1498.6 926L1614.3 858.8V846.5L1498.6 913.7C1496.1 915.1 1493.1 915.1 1490.6 913.7Z" fill="url(#paint46_linear_18_990)"/>
<path opacity="0.2" d="M1374.7 846.6L1491 913.7C1493.4 915.1 1496.4 915.1 1498.8 913.7L1614.2 846.6" stroke="url(#paint47_linear_18_990)" stroke-width="2" stroke-miterlimit="10"/>
<path d="M1681.2 687.1L1638.7 373.1L1749.3 308.8L1860.7 373L1818.2 687.1L1749.9 726.7L1681.2 687.1Z" fill="url(#paint48_linear_18_990)"/>
<path d="M1544.2 1039.4V1046.2L1684.3 965.4V958.5L1544.2 1039.4Z" fill="url(#paint49_linear_18_990)"/>
<path d="M1544.2 1053.7V1060.4L1684.3 979.7V972.8L1544.2 1053.7Z" fill="url(#paint50_linear_18_990)"/>
<path d="M1544.2 1067.9V1074.7L1684.3 993.9V987L1544.2 1067.9Z" fill="url(#paint51_linear_18_990)"/>
<path d="M1544.2 1082.2V1088.9L1684.3 1008.2V1001.3L1544.2 1082.2Z" fill="url(#paint52_linear_18_990)"/>
<path d="M1544.2 1096.5V1103.2L1684.3 1022.4V1015.6L1544.2 1096.5Z" fill="url(#paint53_linear_18_990)"/>
<path d="M1544.2 1110.7V1117.5L1684.3 1036.7V1029.8L1544.2 1110.7Z" fill="url(#paint54_linear_18_990)"/>
<path d="M1544.2 1125V1131.7L1684.3 1051V1044.1L1544.2 1125Z" fill="url(#paint55_linear_18_990)"/>
<path d="M1544.2 1139.2V1146L1684.3 1065.2V1058.3L1544.2 1139.2Z" fill="url(#paint56_linear_18_990)"/>
<path d="M1544.2 1386.1V1392.8L1684.3 1312.1V1305.2L1544.2 1386.1Z" fill="url(#paint57_linear_18_990)"/>
<path d="M1544.2 1400.3V1407.1L1684.3 1326.3V1319.4L1544.2 1400.3Z" fill="url(#paint58_linear_18_990)"/>
<path d="M1544.2 1414.6V1421.4L1684.3 1340.6V1333.7L1544.2 1414.6Z" fill="url(#paint59_linear_18_990)"/>
<path d="M1544.2 1428.9V1435.6L1684.3 1354.8V1348L1544.2 1428.9Z" fill="url(#paint60_linear_18_990)"/>
<path d="M1544.2 1443.1V1449.9L1684.3 1369.1V1362.2L1544.2 1443.1Z" fill="url(#paint61_linear_18_990)"/>
<path d="M1544.2 1457.4V1464.1L1684.3 1383.4V1376.5L1544.2 1457.4Z" fill="url(#paint62_linear_18_990)"/>
<path d="M1544.2 1471.6V1478.4L1684.3 1397.6V1390.7L1544.2 1471.6Z" fill="url(#paint63_linear_18_990)"/>
<path d="M1544.2 1485.9V1492.6L1684.3 1411.9V1405L1544.2 1485.9Z" fill="url(#paint64_linear_18_990)"/>
<path d="M309.999 1406C309.999 1406 313.999 1402.3 323.099 1404.5C332.199 1406.7 329.699 1412.6 329.699 1412.6C329.699 1412.6 327.199 1418.2 315.899 1417.5C315.899 1417.5 299.199 1414.3 309.999 1406Z" fill="url(#paint65_linear_18_990)"/>
<path d="M313.599 1397.3C313.599 1397.3 336.399 1394.7 342.199 1409.2C347.999 1423.7 318.099 1424.8 318.099 1424.8C318.099 1424.8 294.299 1423.5 294.499 1409.8C294.599 1409.8 294.799 1399.8 313.599 1397.3Z" stroke="url(#paint66_linear_18_990)" stroke-width="3" stroke-miterlimit="10"/>
<path d="M724.4 1333C724.4 1333 728.4 1329.3 737.5 1331.5C746.6 1333.7 744.1 1339.6 744.1 1339.6C744.1 1339.6 741.6 1345.2 730.3 1344.5C730.3 1344.5 713.6 1341.3 724.4 1333Z" fill="url(#paint67_linear_18_990)"/>
<path d="M728 1324.3C728 1324.3 750.8 1321.7 756.6 1336.2C762.4 1350.7 732.5 1351.8 732.5 1351.8C732.5 1351.8 708.7 1350.5 708.9 1336.8C709 1336.8 709.2 1326.8 728 1324.3Z" stroke="url(#paint68_linear_18_990)" stroke-width="3" stroke-miterlimit="10"/>
<path d="M783.7 1212.2C783.7 1212.2 787.7 1208.5 796.8 1210.7C805.9 1212.9 803.4 1218.8 803.4 1218.8C803.4 1218.8 800.9 1224.4 789.6 1223.7C789.7 1223.7 773 1220.5 783.7 1212.2Z" fill="url(#paint69_linear_18_990)"/>
<path d="M787.4 1203.5C787.4 1203.5 810.2 1200.9 816 1215.4C821.8 1229.9 791.9 1231 791.9 1231C791.9 1231 768.1 1229.7 768.3 1216C768.4 1216 768.6 1206 787.4 1203.5Z" stroke="url(#paint70_linear_18_990)" stroke-width="3" stroke-miterlimit="10"/>
<path d="M931.9 1090.9C931.9 1090.9 935.9 1087.2 945 1089.4C954.1 1091.6 951.6 1097.5 951.6 1097.5C951.6 1097.5 949.1 1103.1 937.8 1102.4C937.8 1102.4 921.1 1099.2 931.9 1090.9Z" fill="url(#paint71_linear_18_990)"/>
<path d="M935.5 1082.2C935.5 1082.2 958.3 1079.6 964.1 1094.1C969.9 1108.6 940 1109.7 940 1109.7C940 1109.7 916.2 1108.4 916.4 1094.7C916.5 1094.7 916.7 1084.7 935.5 1082.2Z" stroke="url(#paint72_linear_18_990)" stroke-width="3" stroke-miterlimit="10"/>
<defs>
<linearGradient id="paint0_linear_18_990" x1="752.399" y1="1612.84" x2="1952.18" y2="1612.84" gradientUnits="userSpaceOnUse">
<stop stop-color="#7F00FF"/>
<stop offset="1" stop-color="#3F00FC"/>
</linearGradient>
<linearGradient id="paint1_linear_18_990" x1="958.128" y1="1134.82" x2="1063.19" y2="1134.82" gradientUnits="userSpaceOnUse">
<stop stop-color="#7F00FF"/>
<stop offset="1" stop-color="#3F00FC"/>
</linearGradient>
<linearGradient id="paint2_linear_18_990" x1="808.585" y1="1226.44" x2="1054.74" y2="1226.44" gradientUnits="userSpaceOnUse">
<stop stop-color="#7F00FF"/>
<stop offset="1" stop-color="#3F00FC"/>
</linearGradient>
<linearGradient id="paint3_linear_18_990" x1="338.309" y1="1559.49" x2="1428.72" y2="1559.49" gradientUnits="userSpaceOnUse">
<stop stop-color="#7F00FF"/>
<stop offset="1" stop-color="#3F00FC"/>
</linearGradient>
<linearGradient id="paint4_linear_18_990" x1="1385.32" y1="1270.89" x2="1603.76" y2="455.643" gradientUnits="userSpaceOnUse">
<stop stop-color="#4F3E90"/>
<stop offset="1" stop-color="#171A31"/>
</linearGradient>
<linearGradient id="paint5_linear_18_990" x1="1461.13" y1="684.676" x2="1527.94" y2="435.328" gradientUnits="userSpaceOnUse">
<stop stop-color="#4F3E90"/>
<stop offset="1" stop-color="#171A31"/>
</linearGradient>
<linearGradient id="paint6_linear_18_990" x1="1477.19" y1="613.68" x2="1511.81" y2="484.488" gradientUnits="userSpaceOnUse">
<stop stop-color="#4F3E90"/>
<stop offset="1" stop-color="#171A31"/>
</linearGradient>
<linearGradient id="paint7_linear_18_990" x1="1475.94" y1="624.889" x2="1504.18" y2="519.478" gradientUnits="userSpaceOnUse">
<stop stop-color="#463780"/>
<stop offset="0.143" stop-color="#382E68"/>
<stop offset="0.331" stop-color="#292550"/>
<stop offset="0.529" stop-color="#1F1F3F"/>
<stop offset="0.743" stop-color="#191B34"/>
<stop offset="1" stop-color="#171A31"/>
</linearGradient>
<linearGradient id="paint8_linear_18_990" x1="1374.25" y1="583.215" x2="1614.75" y2="583.215" gradientUnits="userSpaceOnUse">
<stop stop-color="#00ACE9"/>
<stop offset="1" stop-color="#007541"/>
</linearGradient>
<linearGradient id="paint9_linear_18_990" x1="1159.64" y1="1428.51" x2="1300.92" y2="901.211" gradientUnits="userSpaceOnUse">
<stop stop-color="#4F3E90"/>
<stop offset="1" stop-color="#171A31"/>
</linearGradient>
<linearGradient id="paint10_linear_18_990" x1="1196.08" y1="1093.49" x2="1262.88" y2="844.192" gradientUnits="userSpaceOnUse">
<stop stop-color="#4F3E90"/>
<stop offset="1" stop-color="#171A31"/>
</linearGradient>
<linearGradient id="paint11_linear_18_990" x1="1099.74" y1="1112.86" x2="1128.93" y2="1003.91" gradientUnits="userSpaceOnUse">
<stop stop-color="#7F00FF"/>
<stop offset="1" stop-color="#3F00FC"/>
</linearGradient>
<linearGradient id="paint12_linear_18_990" x1="1345.46" y1="1147.86" x2="1345.46" y2="968.921" gradientUnits="userSpaceOnUse">
<stop stop-color="#463780"/>
<stop offset="0.143" stop-color="#382E68"/>
<stop offset="0.331" stop-color="#292550"/>
<stop offset="0.529" stop-color="#1F1F3F"/>
<stop offset="0.743" stop-color="#191B34"/>
<stop offset="1" stop-color="#171A31"/>
</linearGradient>
<linearGradient id="paint13_linear_18_990" x1="1196.08" y1="1006.48" x2="1262.88" y2="757.184" gradientUnits="userSpaceOnUse">
<stop stop-color="#4F3E90"/>
<stop offset="1" stop-color="#171A31"/>
</linearGradient>
<linearGradient id="paint14_linear_18_990" x1="1099.74" y1="1025.85" x2="1128.93" y2="916.905" gradientUnits="userSpaceOnUse">
<stop stop-color="#7F00FF"/>
<stop offset="1" stop-color="#3F00FC"/>
</linearGradient>
<linearGradient id="paint15_linear_18_990" x1="1345.46" y1="1060.85" x2="1345.46" y2="881.912" gradientUnits="userSpaceOnUse">
<stop stop-color="#463780"/>
<stop offset="0.143" stop-color="#382E68"/>
<stop offset="0.331" stop-color="#292550"/>
<stop offset="0.529" stop-color="#1F1F3F"/>
<stop offset="0.743" stop-color="#191B34"/>
<stop offset="1" stop-color="#171A31"/>
</linearGradient>
<linearGradient id="paint16_linear_18_990" x1="1196.08" y1="919.475" x2="1262.88" y2="670.176" gradientUnits="userSpaceOnUse">
<stop stop-color="#4F3E90"/>
<stop offset="1" stop-color="#171A31"/>
</linearGradient>
<linearGradient id="paint17_linear_18_990" x1="1099.74" y1="938.847" x2="1128.93" y2="829.897" gradientUnits="userSpaceOnUse">
<stop stop-color="#7F00FF"/>
<stop offset="1" stop-color="#3F00FC"/>
</linearGradient>
<linearGradient id="paint18_linear_18_990" x1="1345.46" y1="973.84" x2="1345.46" y2="794.903" gradientUnits="userSpaceOnUse">
<stop stop-color="#463780"/>
<stop offset="0.143" stop-color="#382E68"/>
<stop offset="0.331" stop-color="#292550"/>
<stop offset="0.529" stop-color="#1F1F3F"/>
<stop offset="0.743" stop-color="#191B34"/>
<stop offset="1" stop-color="#171A31"/>
</linearGradient>
<linearGradient id="paint19_linear_18_990" x1="1196.08" y1="832.466" x2="1262.88" y2="583.167" gradientUnits="userSpaceOnUse">
<stop stop-color="#4F3E90"/>
<stop offset="1" stop-color="#171A31"/>
</linearGradient>
<linearGradient id="paint20_linear_18_990" x1="1099.74" y1="851.838" x2="1128.93" y2="742.889" gradientUnits="userSpaceOnUse">
<stop stop-color="#7F00FF"/>
<stop offset="1" stop-color="#3F00FC"/>
</linearGradient>
<linearGradient id="paint21_linear_18_990" x1="1345.46" y1="886.831" x2="1345.46" y2="707.895" gradientUnits="userSpaceOnUse">
<stop stop-color="#463780"/>
<stop offset="0.143" stop-color="#382E68"/>
<stop offset="0.331" stop-color="#292550"/>
<stop offset="0.529" stop-color="#1F1F3F"/>
<stop offset="0.743" stop-color="#191B34"/>
<stop offset="1" stop-color="#171A31"/>
</linearGradient>
<linearGradient id="paint22_linear_18_990" x1="1196.87" y1="831.95" x2="1263.69" y2="582.603" gradientUnits="userSpaceOnUse">
<stop stop-color="#4F3E90"/>
<stop offset="1" stop-color="#171A31"/>
</linearGradient>
<linearGradient id="paint23_linear_18_990" x1="1212.93" y1="760.954" x2="1247.55" y2="631.763" gradientUnits="userSpaceOnUse">
<stop stop-color="#4F3E90"/>
<stop offset="1" stop-color="#171A31"/>
</linearGradient>
<linearGradient id="paint24_linear_18_990" x1="1211.68" y1="772.163" x2="1239.92" y2="666.753" gradientUnits="userSpaceOnUse">
<stop stop-color="#463780"/>
<stop offset="0.143" stop-color="#382E68"/>
<stop offset="0.331" stop-color="#292550"/>
<stop offset="0.529" stop-color="#1F1F3F"/>
<stop offset="0.743" stop-color="#191B34"/>
<stop offset="1" stop-color="#171A31"/>
</linearGradient>
<linearGradient id="paint25_linear_18_990" x1="1109.99" y1="730.489" x2="1350.49" y2="730.489" gradientUnits="userSpaceOnUse">
<stop stop-color="#00ACE9"/>
<stop offset="1" stop-color="#007541"/>
</linearGradient>
<linearGradient id="paint26_linear_18_990" x1="1640.48" y1="1419.64" x2="1858.93" y2="604.384" gradientUnits="userSpaceOnUse">
<stop stop-color="#4F3E90"/>
<stop offset="1" stop-color="#171A31"/>
</linearGradient>
<linearGradient id="paint27_linear_18_990" x1="1716.3" y1="833.417" x2="1783.11" y2="584.069" gradientUnits="userSpaceOnUse">
<stop stop-color="#4F3E90"/>
<stop offset="1" stop-color="#171A31"/>
</linearGradient>
<linearGradient id="paint28_linear_18_990" x1="1385.32" y1="1568.38" x2="1603.76" y2="753.126" gradientUnits="userSpaceOnUse">
<stop stop-color="#4F3E90"/>
<stop offset="1" stop-color="#171A31"/>
</linearGradient>
<linearGradient id="paint29_linear_18_990" x1="1806.02" y1="589.307" x2="1811.13" y2="589.307" gradientUnits="userSpaceOnUse">
<stop stop-color="white" stop-opacity="0.6"/>
<stop offset="1" stop-color="white"/>
</linearGradient>
<linearGradient id="paint30_linear_18_990" x1="1785.63" y1="551.823" x2="1791.11" y2="551.823" gradientUnits="userSpaceOnUse">
<stop stop-color="white" stop-opacity="0.6"/>
<stop offset="1" stop-color="white"/>
</linearGradient>
<linearGradient id="paint31_linear_18_990" x1="1461.13" y1="982.158" x2="1527.94" y2="732.81" gradientUnits="userSpaceOnUse">
<stop stop-color="#4F3E90"/>
<stop offset="1" stop-color="#171A31"/>
</linearGradient>
<linearGradient id="paint32_linear_18_990" x1="1733.16" y1="751.929" x2="1766.29" y2="628.294" gradientUnits="userSpaceOnUse">
<stop stop-color="#4F3E90"/>
<stop offset="1" stop-color="#171A31"/>
</linearGradient>
<linearGradient id="paint33_linear_18_990" x1="1685.38" y1="761.535" x2="1699.85" y2="707.504" gradientUnits="userSpaceOnUse">
<stop stop-color="#7F00FF"/>
<stop offset="1" stop-color="#3F00FC"/>
</linearGradient>
<linearGradient id="paint34_linear_18_990" x1="1807.24" y1="778.89" x2="1807.24" y2="690.15" gradientUnits="userSpaceOnUse">
<stop stop-color="#463780"/>
<stop offset="0.143" stop-color="#382E68"/>
<stop offset="0.331" stop-color="#292550"/>
<stop offset="0.529" stop-color="#1F1F3F"/>
<stop offset="0.743" stop-color="#191B34"/>
<stop offset="1" stop-color="#171A31"/>
</linearGradient>
<linearGradient id="paint35_linear_18_990" x1="1740.21" y1="725.343" x2="1760.02" y2="651.419" gradientUnits="userSpaceOnUse">
<stop stop-color="#7F00FF" stop-opacity="0.2"/>
<stop offset="1" stop-color="#3F00FC"/>
</linearGradient>
<linearGradient id="paint36_linear_18_990" x1="1740.18" y1="663.777" x2="1760.05" y2="737.933" gradientUnits="userSpaceOnUse">
<stop stop-color="#7F00FF" stop-opacity="0.7"/>
<stop offset="1" stop-color="#3F00FC" stop-opacity="0.6"/>
</linearGradient>
<linearGradient id="paint37_linear_18_990" x1="1740.18" y1="676.018" x2="1760.05" y2="750.172" gradientUnits="userSpaceOnUse">
<stop stop-color="#7F00FF" stop-opacity="0.7"/>
<stop offset="1" stop-color="#3F00FC" stop-opacity="0.6"/>
</linearGradient>
<linearGradient id="paint38_linear_18_990" x1="1740.18" y1="688.258" x2="1760.05" y2="762.412" gradientUnits="userSpaceOnUse">
<stop stop-color="#7F00FF" stop-opacity="0.7"/>
<stop offset="1" stop-color="#3F00FC" stop-opacity="0.6"/>
</linearGradient>
<linearGradient id="paint39_linear_18_990" x1="1740.18" y1="700.498" x2="1760.05" y2="774.652" gradientUnits="userSpaceOnUse">
<stop stop-color="#7F00FF" stop-opacity="0.7"/>
<stop offset="1" stop-color="#3F00FC" stop-opacity="0.6"/>
</linearGradient>
<linearGradient id="paint40_linear_18_990" x1="1740.18" y1="712.738" x2="1760.05" y2="786.893" gradientUnits="userSpaceOnUse">
<stop stop-color="#7F00FF" stop-opacity="0.7"/>
<stop offset="1" stop-color="#3F00FC" stop-opacity="0.6"/>
</linearGradient>
<linearGradient id="paint41_linear_18_990" x1="1740.18" y1="724.978" x2="1760.05" y2="799.133" gradientUnits="userSpaceOnUse">
<stop stop-color="#7F00FF" stop-opacity="0.7"/>
<stop offset="1" stop-color="#3F00FC" stop-opacity="0.6"/>
</linearGradient>
<linearGradient id="paint42_linear_18_990" x1="1753.3" y1="645.684" x2="1756.84" y2="645.684" gradientUnits="userSpaceOnUse">
<stop stop-color="white" stop-opacity="0.6"/>
<stop offset="1" stop-color="white"/>
</linearGradient>
<linearGradient id="paint43_linear_18_990" x1="1303.8" y1="945.695" x2="1454.93" y2="1509.7" gradientUnits="userSpaceOnUse">
<stop stop-color="#7F00FF"/>
<stop offset="1" stop-color="#3F00FC"/>
</linearGradient>
<linearGradient id="paint44_linear_18_990" x1="1443.8" y1="824.844" x2="1725.66" y2="824.844" gradientUnits="userSpaceOnUse">
<stop stop-color="#463780"/>
<stop offset="0.143" stop-color="#382E68"/>
<stop offset="0.331" stop-color="#292550"/>
<stop offset="0.529" stop-color="#1F1F3F"/>
<stop offset="0.743" stop-color="#191B34"/>
<stop offset="1" stop-color="#171A31"/>
</linearGradient>
<linearGradient id="paint45_linear_18_990" x1="1477.19" y1="911.163" x2="1511.81" y2="781.972" gradientUnits="userSpaceOnUse">
<stop stop-color="#4F3E90"/>
<stop offset="1" stop-color="#171A31"/>
</linearGradient>
<linearGradient id="paint46_linear_18_990" x1="1475.94" y1="922.372" x2="1504.18" y2="816.961" gradientUnits="userSpaceOnUse">
<stop stop-color="#463780"/>
<stop offset="0.143" stop-color="#382E68"/>
<stop offset="0.331" stop-color="#292550"/>
<stop offset="0.529" stop-color="#1F1F3F"/>
<stop offset="0.743" stop-color="#191B34"/>
<stop offset="1" stop-color="#171A31"/>
</linearGradient>
<linearGradient id="paint47_linear_18_990" x1="1374.25" y1="880.697" x2="1614.75" y2="880.697" gradientUnits="userSpaceOnUse">
<stop stop-color="#00ACE9"/>
<stop offset="1" stop-color="#007541"/>
</linearGradient>
<linearGradient id="paint48_linear_18_990" x1="1680.73" y1="708.203" x2="1785.18" y2="318.38" gradientUnits="userSpaceOnUse">
<stop stop-color="white" stop-opacity="0"/>
<stop offset="1" stop-color="white" stop-opacity="0.12"/>
</linearGradient>
<linearGradient id="paint49_linear_18_990" x1="1544.19" y1="1002.34" x2="1684.3" y2="1002.34" gradientUnits="userSpaceOnUse">
<stop stop-color="#4F3E90"/>
<stop offset="1" stop-color="#171A31"/>
</linearGradient>
<linearGradient id="paint50_linear_18_990" x1="1544.19" y1="1016.6" x2="1684.3" y2="1016.6" gradientUnits="userSpaceOnUse">
<stop stop-color="#4F3E90"/>
<stop offset="1" stop-color="#171A31"/>
</linearGradient>
<linearGradient id="paint51_linear_18_990" x1="1544.19" y1="1030.86" x2="1684.3" y2="1030.86" gradientUnits="userSpaceOnUse">
<stop stop-color="#4F3E90"/>
<stop offset="1" stop-color="#171A31"/>
</linearGradient>
<linearGradient id="paint52_linear_18_990" x1="1544.19" y1="1045.12" x2="1684.3" y2="1045.12" gradientUnits="userSpaceOnUse">
<stop stop-color="#4F3E90"/>
<stop offset="1" stop-color="#171A31"/>
</linearGradient>
<linearGradient id="paint53_linear_18_990" x1="1544.19" y1="1059.38" x2="1684.3" y2="1059.38" gradientUnits="userSpaceOnUse">
<stop stop-color="#4F3E90"/>
<stop offset="1" stop-color="#171A31"/>
</linearGradient>
<linearGradient id="paint54_linear_18_990" x1="1544.19" y1="1073.64" x2="1684.3" y2="1073.64" gradientUnits="userSpaceOnUse">
<stop stop-color="#4F3E90"/>
<stop offset="1" stop-color="#171A31"/>
</linearGradient>
<linearGradient id="paint55_linear_18_990" x1="1544.19" y1="1087.9" x2="1684.3" y2="1087.9" gradientUnits="userSpaceOnUse">
<stop stop-color="#4F3E90"/>
<stop offset="1" stop-color="#171A31"/>
</linearGradient>
<linearGradient id="paint56_linear_18_990" x1="1544.19" y1="1102.16" x2="1684.3" y2="1102.16" gradientUnits="userSpaceOnUse">
<stop stop-color="#4F3E90"/>
<stop offset="1" stop-color="#171A31"/>
</linearGradient>
<linearGradient id="paint57_linear_18_990" x1="1544.19" y1="1349.01" x2="1684.3" y2="1349.01" gradientUnits="userSpaceOnUse">
<stop stop-color="#4F3E90"/>
<stop offset="1" stop-color="#171A31"/>
</linearGradient>
<linearGradient id="paint58_linear_18_990" x1="1544.19" y1="1363.27" x2="1684.3" y2="1363.27" gradientUnits="userSpaceOnUse">
<stop stop-color="#4F3E90"/>
<stop offset="1" stop-color="#171A31"/>
</linearGradient>
<linearGradient id="paint59_linear_18_990" x1="1544.19" y1="1377.53" x2="1684.3" y2="1377.53" gradientUnits="userSpaceOnUse">
<stop stop-color="#4F3E90"/>
<stop offset="1" stop-color="#171A31"/>
</linearGradient>
<linearGradient id="paint60_linear_18_990" x1="1544.19" y1="1391.79" x2="1684.3" y2="1391.79" gradientUnits="userSpaceOnUse">
<stop stop-color="#4F3E90"/>
<stop offset="1" stop-color="#171A31"/>
</linearGradient>
<linearGradient id="paint61_linear_18_990" x1="1544.19" y1="1406.05" x2="1684.3" y2="1406.05" gradientUnits="userSpaceOnUse">
<stop stop-color="#4F3E90"/>
<stop offset="1" stop-color="#171A31"/>
</linearGradient>
<linearGradient id="paint62_linear_18_990" x1="1544.19" y1="1420.31" x2="1684.3" y2="1420.31" gradientUnits="userSpaceOnUse">
<stop stop-color="#4F3E90"/>
<stop offset="1" stop-color="#171A31"/>
</linearGradient>
<linearGradient id="paint63_linear_18_990" x1="1544.19" y1="1434.57" x2="1684.3" y2="1434.57" gradientUnits="userSpaceOnUse">
<stop stop-color="#4F3E90"/>
<stop offset="1" stop-color="#171A31"/>
</linearGradient>
<linearGradient id="paint64_linear_18_990" x1="1544.19" y1="1448.83" x2="1684.3" y2="1448.83" gradientUnits="userSpaceOnUse">
<stop stop-color="#4F3E90"/>
<stop offset="1" stop-color="#171A31"/>
</linearGradient>
<linearGradient id="paint65_linear_18_990" x1="306.354" y1="1410.65" x2="329.949" y2="1410.65" gradientUnits="userSpaceOnUse">
<stop stop-color="#7F00FF"/>
<stop offset="1" stop-color="#3F00FC"/>
</linearGradient>
<linearGradient id="paint66_linear_18_990" x1="293.09" y1="1410.96" x2="344.481" y2="1410.96" gradientUnits="userSpaceOnUse">
<stop stop-color="#7F00FF"/>
<stop offset="1" stop-color="#3F00FC"/>
</linearGradient>
<linearGradient id="paint67_linear_18_990" x1="720.743" y1="1337.68" x2="744.338" y2="1337.68" gradientUnits="userSpaceOnUse">
<stop stop-color="#7F00FF"/>
<stop offset="1" stop-color="#3F00FC"/>
</linearGradient>
<linearGradient id="paint68_linear_18_990" x1="707.479" y1="1337.99" x2="758.87" y2="1337.99" gradientUnits="userSpaceOnUse">
<stop stop-color="#7F00FF"/>
<stop offset="1" stop-color="#3F00FC"/>
</linearGradient>
<linearGradient id="paint69_linear_18_990" x1="780.129" y1="1216.84" x2="803.723" y2="1216.84" gradientUnits="userSpaceOnUse">
<stop stop-color="#7F00FF"/>
<stop offset="1" stop-color="#3F00FC"/>
</linearGradient>
<linearGradient id="paint70_linear_18_990" x1="766.865" y1="1217.15" x2="818.255" y2="1217.15" gradientUnits="userSpaceOnUse">
<stop stop-color="#7F00FF"/>
<stop offset="1" stop-color="#3F00FC"/>
</linearGradient>
<linearGradient id="paint71_linear_18_990" x1="928.242" y1="1095.54" x2="951.836" y2="1095.54" gradientUnits="userSpaceOnUse">
<stop stop-color="#7F00FF"/>
<stop offset="1" stop-color="#3F00FC"/>
</linearGradient>
<linearGradient id="paint72_linear_18_990" x1="914.977" y1="1095.84" x2="966.368" y2="1095.84" gradientUnits="userSpaceOnUse">
<stop stop-color="#7F00FF"/>
<stop offset="1" stop-color="#3F00FC"/>
</linearGradient>
</defs>
</svg>
